STARTFONT 2.1
FONT -FontForge-Arial-Bold-R-Normal--8-80-75-75-P-40-ISO10646-1
SIZE 8 75 75
FONTBOUNDINGBOX 16 13 -1 -3
COMMENT "Generated by fontforge, http://fontforge.sourceforge.net"
COMMENT "(c) 2017 The Monotype Corporation. All Rights Reserved. "
COMMENT ""
COMMENT "Hebrew OpenType Layout logic copyright (c) 2003 & 2007, Ralph Hancock & John Hudson. This layout logic for Biblical Hebrew is open source software under the MIT License; see embedded license description for details."
STARTPROPERTIES 40
FOUNDRY "FontForge"
FAMILY_NAME "Arial"
WEIGHT_NAME "Bold"
SLANT "R"
SETWIDTH_NAME "Normal"
ADD_STYLE_NAME ""
PIXEL_SIZE 8
POINT_SIZE 80
RESOLUTION_X 75
RESOLUTION_Y 75
SPACING "P"
AVERAGE_WIDTH 40
CHARSET_REGISTRY "ISO10646"
CHARSET_ENCODING "1"
FONTNAME_REGISTRY ""
CHARSET_COLLECTIONS "ISO10646-1"
FONT_NAME "Arial-BoldMT"
FACE_NAME "Arial Bold"
COPYRIGHT "(c) 2017 The Monotype Corporation. All Rights Reserved. "
FONT_VERSION "7.03"
FONT_ASCENT 6
FONT_DESCENT 2
UNDERLINE_POSITION -1
UNDERLINE_THICKNESS 1
X_HEIGHT 4
CAP_HEIGHT 5
RAW_ASCENT 799
RAW_DESCENT 200
NORM_SPACE 2
RELATIVE_WEIGHT 70
RELATIVE_SETWIDTH 50
SUPERSCRIPT_X 0
SUPERSCRIPT_Y 3
SUPERSCRIPT_SIZE 5
SUBSCRIPT_X 0
SUBSCRIPT_Y 1
SUBSCRIPT_SIZE 5
FIGURE_WIDTH 4
AVG_LOWERCASE_WIDTH 41
AVG_UPPERCASE_WIDTH 55
ENDPROPERTIES
CHARS 266
STARTCHAR space
ENCODING 32
SWIDTH 277 0
DWIDTH 2 0
BBX 1 1 0 0
BITMAP
00
ENDCHAR
STARTCHAR exclam
ENCODING 33
SWIDTH 333 0
DWIDTH 1 0
BBX 1 6 0 0
BITMAP
80
80
80
80
80
80
ENDCHAR
STARTCHAR quotedbl
ENCODING 34
SWIDTH 474 0
DWIDTH 4 0
BBX 3 2 0 4
BITMAP
A0
A0
ENDCHAR
STARTCHAR numbersign
ENCODING 35
SWIDTH 556 0
DWIDTH 4 0
BBX 4 6 0 0
BITMAP
50
50
F0
A0
F0
A0
ENDCHAR
STARTCHAR dollar
ENCODING 36
SWIDTH 556 0
DWIDTH 4 0
BBX 3 8 0 -1
BITMAP
40
E0
E0
C0
60
E0
E0
40
ENDCHAR
STARTCHAR percent
ENCODING 37
SWIDTH 889 0
DWIDTH 8 0
BBX 7 6 0 0
BITMAP
E8
A8
F0
1E
2A
2E
ENDCHAR
STARTCHAR ampersand
ENCODING 38
SWIDTH 722 0
DWIDTH 6 0
BBX 6 6 0 0
BITMAP
F0
90
60
E8
98
7C
ENDCHAR
STARTCHAR quotesingle
ENCODING 39
SWIDTH 237 0
DWIDTH 2 0
BBX 1 2 0 4
BITMAP
80
80
ENDCHAR
STARTCHAR parenleft
ENCODING 40
SWIDTH 333 0
DWIDTH 3 0
BBX 2 8 0 -2
BITMAP
40
80
80
80
80
80
80
40
ENDCHAR
STARTCHAR parenright
ENCODING 41
SWIDTH 333 0
DWIDTH 3 0
BBX 2 8 1 -2
BITMAP
80
40
40
40
40
40
40
80
ENDCHAR
STARTCHAR asterisk
ENCODING 42
SWIDTH 389 0
DWIDTH 3 0
BBX 3 3 0 3
BITMAP
40
E0
A0
ENDCHAR
STARTCHAR plus
ENCODING 43
SWIDTH 583 0
DWIDTH 5 0
BBX 3 3 0 1
BITMAP
40
E0
40
ENDCHAR
STARTCHAR comma
ENCODING 44
SWIDTH 277 0
DWIDTH 2 0
BBX 1 2 0 -1
BITMAP
80
80
ENDCHAR
STARTCHAR hyphen
ENCODING 45
SWIDTH 333 0
DWIDTH 3 0
BBX 3 1 0 2
BITMAP
E0
ENDCHAR
STARTCHAR period
ENCODING 46
SWIDTH 277 0
DWIDTH 2 0
BBX 1 1 0 0
BITMAP
80
ENDCHAR
STARTCHAR slash
ENCODING 47
SWIDTH 277 0
DWIDTH 2 0
BBX 2 6 0 0
BITMAP
40
40
40
80
80
80
ENDCHAR
STARTCHAR zero
ENCODING 48
SWIDTH 556 0
DWIDTH 4 0
BBX 3 6 0 0
BITMAP
40
A0
A0
A0
A0
40
ENDCHAR
STARTCHAR one
ENCODING 49
SWIDTH 556 0
DWIDTH 4 0
BBX 2 6 1 0
BITMAP
40
C0
40
40
40
40
ENDCHAR
STARTCHAR two
ENCODING 50
SWIDTH 556 0
DWIDTH 4 0
BBX 3 6 0 0
BITMAP
E0
A0
20
60
C0
E0
ENDCHAR
STARTCHAR three
ENCODING 51
SWIDTH 556 0
DWIDTH 4 0
BBX 3 6 0 0
BITMAP
E0
A0
40
20
A0
C0
ENDCHAR
STARTCHAR four
ENCODING 52
SWIDTH 556 0
DWIDTH 4 0
BBX 4 6 0 0
BITMAP
20
60
60
A0
F0
20
ENDCHAR
STARTCHAR five
ENCODING 53
SWIDTH 556 0
DWIDTH 4 0
BBX 3 6 0 0
BITMAP
60
C0
E0
20
A0
E0
ENDCHAR
STARTCHAR six
ENCODING 54
SWIDTH 556 0
DWIDTH 4 0
BBX 3 6 0 0
BITMAP
60
A0
80
E0
A0
60
ENDCHAR
STARTCHAR seven
ENCODING 55
SWIDTH 556 0
DWIDTH 4 0
BBX 3 6 0 0
BITMAP
E0
60
40
80
80
80
ENDCHAR
STARTCHAR eight
ENCODING 56
SWIDTH 556 0
DWIDTH 4 0
BBX 3 6 0 0
BITMAP
E0
A0
40
A0
A0
E0
ENDCHAR
STARTCHAR nine
ENCODING 57
SWIDTH 556 0
DWIDTH 4 0
BBX 3 6 0 0
BITMAP
C0
A0
E0
20
A0
C0
ENDCHAR
STARTCHAR colon
ENCODING 58
SWIDTH 333 0
DWIDTH 3 0
BBX 1 5 1 0
BITMAP
80
00
00
00
80
ENDCHAR
STARTCHAR semicolon
ENCODING 59
SWIDTH 333 0
DWIDTH 3 0
BBX 1 6 1 -1
BITMAP
80
00
00
00
80
80
ENDCHAR
STARTCHAR less
ENCODING 60
SWIDTH 583 0
DWIDTH 5 0
BBX 4 4 0 1
BITMAP
10
E0
E0
10
ENDCHAR
STARTCHAR equal
ENCODING 61
SWIDTH 583 0
DWIDTH 5 0
BBX 4 3 0 2
BITMAP
F0
00
F0
ENDCHAR
STARTCHAR greater
ENCODING 62
SWIDTH 583 0
DWIDTH 5 0
BBX 4 4 0 1
BITMAP
80
70
70
80
ENDCHAR
STARTCHAR question
ENCODING 63
SWIDTH 610 0
DWIDTH 5 0
BBX 4 6 0 0
BITMAP
60
90
10
60
40
40
ENDCHAR
STARTCHAR at
ENCODING 64
SWIDTH 975 0
DWIDTH 8 0
BBX 8 8 0 -2
BITMAP
3E
7F
E5
C5
CD
BE
41
3E
ENDCHAR
STARTCHAR A
ENCODING 65
SWIDTH 722 0
DWIDTH 5 0
BBX 5 6 0 0
BITMAP
20
50
50
50
F8
88
ENDCHAR
STARTCHAR B
ENCODING 66
SWIDTH 722 0
DWIDTH 6 0
BBX 5 6 1 0
BITMAP
F8
88
F0
88
88
F0
ENDCHAR
STARTCHAR C
ENCODING 67
SWIDTH 722 0
DWIDTH 6 0
BBX 6 6 0 0
BITMAP
78
C4
80
80
C4
78
ENDCHAR
STARTCHAR D
ENCODING 68
SWIDTH 722 0
DWIDTH 6 0
BBX 5 6 1 0
BITMAP
F0
88
88
88
88
F0
ENDCHAR
STARTCHAR E
ENCODING 69
SWIDTH 666 0
DWIDTH 5 0
BBX 4 6 1 0
BITMAP
F0
80
F0
80
80
F0
ENDCHAR
STARTCHAR F
ENCODING 70
SWIDTH 610 0
DWIDTH 5 0
BBX 4 6 1 0
BITMAP
F0
80
F0
80
80
80
ENDCHAR
STARTCHAR G
ENCODING 71
SWIDTH 777 0
DWIDTH 6 0
BBX 5 6 0 0
BITMAP
70
88
80
98
88
70
ENDCHAR
STARTCHAR H
ENCODING 72
SWIDTH 722 0
DWIDTH 6 0
BBX 4 6 1 0
BITMAP
90
90
F0
90
90
90
ENDCHAR
STARTCHAR I
ENCODING 73
SWIDTH 277 0
DWIDTH 2 0
BBX 1 6 1 0
BITMAP
80
80
80
80
80
80
ENDCHAR
STARTCHAR J
ENCODING 74
SWIDTH 556 0
DWIDTH 4 0
BBX 3 6 0 0
BITMAP
20
20
20
20
A0
E0
ENDCHAR
STARTCHAR K
ENCODING 75
SWIDTH 722 0
DWIDTH 6 0
BBX 4 6 1 0
BITMAP
90
A0
C0
E0
90
90
ENDCHAR
STARTCHAR L
ENCODING 76
SWIDTH 610 0
DWIDTH 5 0
BBX 3 6 1 0
BITMAP
80
80
80
80
80
E0
ENDCHAR
STARTCHAR M
ENCODING 77
SWIDTH 833 0
DWIDTH 7 0
BBX 5 6 1 0
BITMAP
D8
D8
D8
D8
A8
A8
ENDCHAR
STARTCHAR N
ENCODING 78
SWIDTH 722 0
DWIDTH 6 0
BBX 4 6 1 0
BITMAP
90
D0
D0
B0
B0
90
ENDCHAR
STARTCHAR O
ENCODING 79
SWIDTH 777 0
DWIDTH 6 0
BBX 6 6 0 0
BITMAP
78
CC
84
84
CC
78
ENDCHAR
STARTCHAR P
ENCODING 80
SWIDTH 666 0
DWIDTH 5 0
BBX 4 6 1 0
BITMAP
F0
90
90
E0
80
80
ENDCHAR
STARTCHAR Q
ENCODING 81
SWIDTH 777 0
DWIDTH 6 0
BBX 6 6 0 0
BITMAP
78
C4
84
94
D8
7C
ENDCHAR
STARTCHAR R
ENCODING 82
SWIDTH 722 0
DWIDTH 6 0
BBX 4 6 1 0
BITMAP
F0
90
F0
A0
A0
90
ENDCHAR
STARTCHAR S
ENCODING 83
SWIDTH 666 0
DWIDTH 5 0
BBX 3 6 1 0
BITMAP
E0
A0
C0
60
A0
E0
ENDCHAR
STARTCHAR T
ENCODING 84
SWIDTH 610 0
DWIDTH 5 0
BBX 5 6 0 0
BITMAP
F8
20
20
20
20
20
ENDCHAR
STARTCHAR U
ENCODING 85
SWIDTH 722 0
DWIDTH 6 0
BBX 4 6 1 0
BITMAP
90
90
90
90
90
60
ENDCHAR
STARTCHAR V
ENCODING 86
SWIDTH 666 0
DWIDTH 5 0
BBX 5 6 0 0
BITMAP
88
88
50
50
50
20
ENDCHAR
STARTCHAR W
ENCODING 87
SWIDTH 943 0
DWIDTH 9 0
BBX 9 6 0 0
BITMAP
8880
9D00
5500
5500
5600
2200
ENDCHAR
STARTCHAR X
ENCODING 88
SWIDTH 666 0
DWIDTH 5 0
BBX 3 6 1 0
BITMAP
A0
A0
40
40
A0
A0
ENDCHAR
STARTCHAR Y
ENCODING 89
SWIDTH 666 0
DWIDTH 5 0
BBX 5 6 0 0
BITMAP
88
50
50
20
20
20
ENDCHAR
STARTCHAR Z
ENCODING 90
SWIDTH 610 0
DWIDTH 5 0
BBX 5 6 0 0
BITMAP
F8
10
20
40
80
F8
ENDCHAR
STARTCHAR bracketleft
ENCODING 91
SWIDTH 333 0
DWIDTH 3 0
BBX 2 8 1 -2
BITMAP
C0
80
80
80
80
80
80
C0
ENDCHAR
STARTCHAR backslash
ENCODING 92
SWIDTH 277 0
DWIDTH 2 0
BBX 2 6 0 0
BITMAP
80
80
80
40
40
40
ENDCHAR
STARTCHAR bracketright
ENCODING 93
SWIDTH 333 0
DWIDTH 3 0
BBX 2 8 0 -2
BITMAP
C0
40
40
40
40
40
40
C0
ENDCHAR
STARTCHAR asciicircum
ENCODING 94
SWIDTH 583 0
DWIDTH 5 0
BBX 4 3 0 3
BITMAP
60
60
90
ENDCHAR
STARTCHAR underscore
ENCODING 95
SWIDTH 556 0
DWIDTH 4 0
BBX 4 1 0 -2
BITMAP
F0
ENDCHAR
STARTCHAR grave
ENCODING 96
SWIDTH 333 0
DWIDTH 3 0
BBX 2 1 0 5
BITMAP
C0
ENDCHAR
STARTCHAR a
ENCODING 97
SWIDTH 556 0
DWIDTH 4 0
BBX 3 5 0 0
BITMAP
E0
A0
60
A0
E0
ENDCHAR
STARTCHAR b
ENCODING 98
SWIDTH 610 0
DWIDTH 5 0
BBX 4 6 0 0
BITMAP
80
E0
90
90
90
E0
ENDCHAR
STARTCHAR c
ENCODING 99
SWIDTH 556 0
DWIDTH 4 0
BBX 3 5 0 0
BITMAP
60
A0
80
A0
60
ENDCHAR
STARTCHAR d
ENCODING 100
SWIDTH 610 0
DWIDTH 5 0
BBX 4 6 0 0
BITMAP
10
70
90
90
90
70
ENDCHAR
STARTCHAR e
ENCODING 101
SWIDTH 556 0
DWIDTH 4 0
BBX 3 5 0 0
BITMAP
40
A0
E0
A0
40
ENDCHAR
STARTCHAR f
ENCODING 102
SWIDTH 333 0
DWIDTH 3 0
BBX 3 6 0 0
BITMAP
60
E0
40
40
40
40
ENDCHAR
STARTCHAR g
ENCODING 103
SWIDTH 610 0
DWIDTH 5 0
BBX 4 7 0 -2
BITMAP
70
90
90
90
70
90
E0
ENDCHAR
STARTCHAR h
ENCODING 104
SWIDTH 610 0
DWIDTH 5 0
BBX 4 6 0 0
BITMAP
80
B0
D0
90
90
90
ENDCHAR
STARTCHAR i
ENCODING 105
SWIDTH 277 0
DWIDTH 2 0
BBX 1 6 0 0
BITMAP
80
80
80
80
80
80
ENDCHAR
STARTCHAR j
ENCODING 106
SWIDTH 277 0
DWIDTH 3 0
BBX 2 8 0 -2
BITMAP
40
40
40
40
40
40
40
C0
ENDCHAR
STARTCHAR k
ENCODING 107
SWIDTH 556 0
DWIDTH 4 0
BBX 3 6 0 0
BITMAP
80
A0
E0
E0
A0
A0
ENDCHAR
STARTCHAR l
ENCODING 108
SWIDTH 277 0
DWIDTH 2 0
BBX 1 6 0 0
BITMAP
80
80
80
80
80
80
ENDCHAR
STARTCHAR m
ENCODING 109
SWIDTH 889 0
DWIDTH 7 0
BBX 5 5 0 0
BITMAP
F8
A8
A8
A8
A8
ENDCHAR
STARTCHAR n
ENCODING 110
SWIDTH 610 0
DWIDTH 5 0
BBX 4 5 0 0
BITMAP
F0
90
90
90
90
ENDCHAR
STARTCHAR o
ENCODING 111
SWIDTH 610 0
DWIDTH 5 0
BBX 4 5 0 0
BITMAP
60
90
90
90
60
ENDCHAR
STARTCHAR p
ENCODING 112
SWIDTH 610 0
DWIDTH 5 0
BBX 4 7 0 -2
BITMAP
E0
90
90
90
E0
80
80
ENDCHAR
STARTCHAR q
ENCODING 113
SWIDTH 610 0
DWIDTH 5 0
BBX 4 7 0 -2
BITMAP
70
90
90
90
70
10
10
ENDCHAR
STARTCHAR r
ENCODING 114
SWIDTH 389 0
DWIDTH 3 0
BBX 3 5 0 0
BITMAP
E0
80
80
80
80
ENDCHAR
STARTCHAR s
ENCODING 115
SWIDTH 556 0
DWIDTH 4 0
BBX 2 5 1 0
BITMAP
C0
C0
C0
C0
C0
ENDCHAR
STARTCHAR t
ENCODING 116
SWIDTH 333 0
DWIDTH 3 0
BBX 3 7 0 0
BITMAP
40
40
E0
40
40
40
60
ENDCHAR
STARTCHAR u
ENCODING 117
SWIDTH 610 0
DWIDTH 5 0
BBX 4 5 0 0
BITMAP
90
90
90
90
F0
ENDCHAR
STARTCHAR v
ENCODING 118
SWIDTH 556 0
DWIDTH 5 0
BBX 3 5 1 0
BITMAP
A0
A0
A0
40
40
ENDCHAR
STARTCHAR w
ENCODING 119
SWIDTH 777 0
DWIDTH 5 0
BBX 5 5 0 0
BITMAP
A8
A8
E8
50
50
ENDCHAR
STARTCHAR x
ENCODING 120
SWIDTH 556 0
DWIDTH 4 0
BBX 2 5 1 0
BITMAP
C0
C0
80
C0
C0
ENDCHAR
STARTCHAR y
ENCODING 121
SWIDTH 556 0
DWIDTH 3 0
BBX 3 7 0 -2
BITMAP
A0
A0
C0
C0
40
40
80
ENDCHAR
STARTCHAR z
ENCODING 122
SWIDTH 500 0
DWIDTH 4 0
BBX 3 5 1 0
BITMAP
E0
20
40
80
E0
ENDCHAR
STARTCHAR braceleft
ENCODING 123
SWIDTH 389 0
DWIDTH 3 0
BBX 3 8 0 -2
BITMAP
60
40
40
80
40
40
40
60
ENDCHAR
STARTCHAR bar
ENCODING 124
SWIDTH 279 0
DWIDTH 2 0
BBX 1 8 0 -2
BITMAP
80
80
80
80
80
80
80
80
ENDCHAR
STARTCHAR braceright
ENCODING 125
SWIDTH 389 0
DWIDTH 3 0
BBX 3 8 0 -2
BITMAP
C0
40
40
20
40
40
40
C0
ENDCHAR
STARTCHAR asciitilde
ENCODING 126
SWIDTH 583 0
DWIDTH 5 0
BBX 4 2 0 2
BITMAP
C0
30
ENDCHAR
STARTCHAR space.dup1
ENCODING 160
SWIDTH 277 0
DWIDTH 2 0
BBX 1 1 0 0
BITMAP
00
ENDCHAR
STARTCHAR hyphen.dup2
ENCODING 173
SWIDTH 333 0
DWIDTH 3 0
BBX 3 1 0 2
BITMAP
E0
ENDCHAR
STARTCHAR semicolon.dup3
ENCODING 894
SWIDTH 333 0
DWIDTH 3 0
BBX 1 6 1 -1
BITMAP
80
00
00
00
80
80
ENDCHAR
STARTCHAR uni076E.medi
ENCODING -1
SWIDTH 523 0
DWIDTH 4 0
BBX 4 5 0 -1
BITMAP
60
30
F0
00
60
ENDCHAR
STARTCHAR uni076F.fina
ENCODING -1
SWIDTH 558 0
DWIDTH 4 0
BBX 4 6 0 -2
BITMAP
F0
40
B0
80
C0
20
ENDCHAR
STARTCHAR uni076F.init
ENCODING -1
SWIDTH 523 0
DWIDTH 4 0
BBX 4 6 0 -2
BITMAP
60
30
F0
00
00
40
ENDCHAR
STARTCHAR uni076F.medi
ENCODING -1
SWIDTH 523 0
DWIDTH 4 0
BBX 4 6 0 -2
BITMAP
60
30
F0
00
00
40
ENDCHAR
STARTCHAR uni0770.fina
ENCODING -1
SWIDTH 899 0
DWIDTH 7 0
BBX 7 6 0 -1
BITMAP
04
00
00
8E
D0
20
ENDCHAR
STARTCHAR uni0770.init
ENCODING -1
SWIDTH 608 0
DWIDTH 5 0
BBX 5 4 0 1
BITMAP
10
00
58
F8
ENDCHAR
STARTCHAR uni0770.medi
ENCODING -1
SWIDTH 608 0
DWIDTH 5 0
BBX 5 4 0 1
BITMAP
10
00
58
F8
ENDCHAR
STARTCHAR uni0771.fina
ENCODING -1
SWIDTH 432 0
DWIDTH 3 0
BBX 3 6 1 -1
BITMAP
60
00
00
00
40
80
ENDCHAR
STARTCHAR uni0772.fina
ENCODING -1
SWIDTH 558 0
DWIDTH 4 0
BBX 4 6 0 -2
BITMAP
F0
40
90
80
C0
20
ENDCHAR
STARTCHAR uni0772.init
ENCODING -1
SWIDTH 523 0
DWIDTH 4 0
BBX 4 6 0 1
BITMAP
40
40
00
60
30
F0
ENDCHAR
STARTCHAR uni0772.medi
ENCODING -1
SWIDTH 523 0
DWIDTH 4 0
BBX 4 6 0 1
BITMAP
40
40
00
60
30
F0
ENDCHAR
STARTCHAR uni0773.fina
ENCODING -1
SWIDTH 234 0
DWIDTH 2 0
BBX 2 5 0 1
BITMAP
80
80
80
80
40
ENDCHAR
STARTCHAR uni0774.fina
ENCODING -1
SWIDTH 234 0
DWIDTH 2 0
BBX 2 5 0 1
BITMAP
80
80
80
80
40
ENDCHAR
STARTCHAR uni0775.fina
ENCODING -1
SWIDTH 554 0
DWIDTH 4 0
BBX 4 3 0 -1
BITMAP
90
90
F0
ENDCHAR
STARTCHAR uni0775.init
ENCODING -1
SWIDTH 271 0
DWIDTH 2 0
BBX 2 2 0 0
BITMAP
C0
C0
ENDCHAR
STARTCHAR uni0775.medi
ENCODING -1
SWIDTH 271 0
DWIDTH 2 0
BBX 2 2 0 0
BITMAP
C0
C0
ENDCHAR
STARTCHAR uni0776.fina
ENCODING -1
SWIDTH 554 0
DWIDTH 4 0
BBX 4 3 0 -1
BITMAP
90
90
F0
ENDCHAR
STARTCHAR uni0776.init
ENCODING -1
SWIDTH 271 0
DWIDTH 2 0
BBX 2 2 0 0
BITMAP
C0
C0
ENDCHAR
STARTCHAR uni0776.medi
ENCODING -1
SWIDTH 271 0
DWIDTH 2 0
BBX 2 2 0 0
BITMAP
C0
C0
ENDCHAR
STARTCHAR uni0777.fina
ENCODING -1
SWIDTH 554 0
DWIDTH 4 0
BBX 4 3 0 -1
BITMAP
90
90
F0
ENDCHAR
STARTCHAR uni0777.init
ENCODING -1
SWIDTH 271 0
DWIDTH 2 0
BBX 2 3 0 -1
BITMAP
C0
40
40
ENDCHAR
STARTCHAR uni0777.medi
ENCODING -1
SWIDTH 271 0
DWIDTH 2 0
BBX 2 3 0 -1
BITMAP
C0
40
40
ENDCHAR
STARTCHAR uni0778.fina
ENCODING -1
SWIDTH 451 0
DWIDTH 4 0
BBX 3 4 1 0
BITMAP
C0
20
60
40
ENDCHAR
STARTCHAR uni0779.fina
ENCODING -1
SWIDTH 451 0
DWIDTH 4 0
BBX 3 4 1 0
BITMAP
C0
20
60
40
ENDCHAR
STARTCHAR uni077A.fina
ENCODING -1
SWIDTH 812 0
DWIDTH 7 0
BBX 7 4 0 -2
BITMAP
3E
40
80
FC
ENDCHAR
STARTCHAR uni077B.fina
ENCODING -1
SWIDTH 812 0
DWIDTH 7 0
BBX 7 4 0 -2
BITMAP
3E
40
80
FC
ENDCHAR
STARTCHAR uni077C.fina
ENCODING -1
SWIDTH 558 0
DWIDTH 4 0
BBX 4 6 0 -2
BITMAP
F0
40
90
80
C0
20
ENDCHAR
STARTCHAR uni077C.init
ENCODING -1
SWIDTH 523 0
DWIDTH 4 0
BBX 4 3 0 1
BITMAP
60
30
F0
ENDCHAR
STARTCHAR uni077C.medi
ENCODING -1
SWIDTH 523 0
DWIDTH 4 0
BBX 4 3 0 1
BITMAP
60
30
F0
ENDCHAR
STARTCHAR uni077D.fina
ENCODING -1
SWIDTH 899 0
DWIDTH 7 0
BBX 7 6 0 -1
BITMAP
04
00
00
8E
D0
20
ENDCHAR
STARTCHAR uni077D.init
ENCODING -1
SWIDTH 608 0
DWIDTH 5 0
BBX 5 2 0 1
BITMAP
58
F8
ENDCHAR
STARTCHAR uni077D.medi
ENCODING -1
SWIDTH 608 0
DWIDTH 5 0
BBX 5 2 0 1
BITMAP
58
F8
ENDCHAR
STARTCHAR uni077E.fina
ENCODING -1
SWIDTH 899 0
DWIDTH 7 0
BBX 7 6 0 -1
BITMAP
04
00
00
8E
D0
20
ENDCHAR
STARTCHAR uni077E.init
ENCODING -1
SWIDTH 608 0
DWIDTH 5 0
BBX 5 4 0 1
BITMAP
10
00
58
F8
ENDCHAR
STARTCHAR uni077E.medi
ENCODING -1
SWIDTH 608 0
DWIDTH 5 0
BBX 5 4 0 1
BITMAP
10
00
58
F8
ENDCHAR
STARTCHAR uni077F.fina
ENCODING -1
SWIDTH 541 0
DWIDTH 4 0
BBX 4 6 0 1
BITMAP
60
10
10
20
80
F0
ENDCHAR
STARTCHAR uni077F.init
ENCODING -1
SWIDTH 360 0
DWIDTH 3 0
BBX 3 6 0 1
BITMAP
40
20
40
40
20
E0
ENDCHAR
STARTCHAR uni077F.medi
ENCODING -1
SWIDTH 360 0
DWIDTH 3 0
BBX 3 6 0 1
BITMAP
40
20
40
40
20
E0
ENDCHAR
STARTCHAR uniFEDF_uni0773.fina.rlig
ENCODING -1
SWIDTH 537 0
DWIDTH 4 0
BBX 3 5 1 1
BITMAP
20
A0
60
00
60
ENDCHAR
STARTCHAR uniFEE0_uni0773.fina.rlig
ENCODING -1
SWIDTH 580 0
DWIDTH 5 0
BBX 4 5 1 1
BITMAP
20
A0
60
20
50
ENDCHAR
STARTCHAR uniFEDF_uni0774.fina.rlig
ENCODING -1
SWIDTH 530 0
DWIDTH 4 0
BBX 3 5 1 1
BITMAP
20
A0
60
00
60
ENDCHAR
STARTCHAR uniFEE0_uni0774.fina.rlig
ENCODING -1
SWIDTH 579 0
DWIDTH 5 0
BBX 4 5 1 1
BITMAP
20
A0
60
20
50
ENDCHAR
STARTCHAR glyph3871
ENCODING -1
SWIDTH 892 0
DWIDTH 7 0
BBX 6 5 1 1
BITMAP
20
FC
E4
58
7C
ENDCHAR
STARTCHAR uni0620.fina
ENCODING -1
SWIDTH 554 0
DWIDTH 4 0
BBX 4 5 0 -3
BITMAP
70
90
F0
50
70
ENDCHAR
STARTCHAR uni0620.init
ENCODING -1
SWIDTH 271 0
DWIDTH 2 0
BBX 2 2 0 0
BITMAP
C0
40
ENDCHAR
STARTCHAR uni0620.medi
ENCODING -1
SWIDTH 271 0
DWIDTH 2 0
BBX 2 2 0 0
BITMAP
C0
40
ENDCHAR
STARTCHAR uni063B.fina
ENCODING -1
SWIDTH 878 0
DWIDTH 7 0
BBX 7 6 0 1
BITMAP
08
04
18
18
8C
F2
ENDCHAR
STARTCHAR uni063B.init
ENCODING -1
SWIDTH 360 0
DWIDTH 3 0
BBX 3 6 0 1
BITMAP
40
20
40
40
20
E0
ENDCHAR
STARTCHAR uni063B.medi
ENCODING -1
SWIDTH 541 0
DWIDTH 4 0
BBX 4 6 0 1
BITMAP
40
20
40
40
20
D0
ENDCHAR
STARTCHAR uni063C.fina
ENCODING -1
SWIDTH 878 0
DWIDTH 7 0
BBX 7 7 0 -1
BITMAP
04
18
18
8C
F2
08
10
ENDCHAR
STARTCHAR uni063C.init
ENCODING -1
SWIDTH 360 0
DWIDTH 3 0
BBX 3 7 0 -1
BITMAP
20
40
40
20
E0
20
40
ENDCHAR
STARTCHAR uni063C.medi
ENCODING -1
SWIDTH 541 0
DWIDTH 4 0
BBX 4 5 0 1
BITMAP
20
40
40
20
D0
ENDCHAR
STARTCHAR uni063D.fina
ENCODING -1
SWIDTH 554 0
DWIDTH 4 0
BBX 4 3 0 -1
BITMAP
90
90
F0
ENDCHAR
STARTCHAR uni063D.init
ENCODING -1
SWIDTH 271 0
DWIDTH 2 0
BBX 2 2 0 0
BITMAP
C0
C0
ENDCHAR
STARTCHAR uni063D.medi
ENCODING -1
SWIDTH 271 0
DWIDTH 2 0
BBX 2 2 0 0
BITMAP
C0
C0
ENDCHAR
STARTCHAR uni063E.fina
ENCODING -1
SWIDTH 554 0
DWIDTH 4 0
BBX 4 5 0 -1
BITMAP
20
00
90
90
F0
ENDCHAR
STARTCHAR uni063E.init
ENCODING -1
SWIDTH 271 0
DWIDTH 2 0
BBX 2 6 0 0
BITMAP
40
80
00
00
C0
C0
ENDCHAR
STARTCHAR uni063E.medi
ENCODING -1
SWIDTH 271 0
DWIDTH 2 0
BBX 2 6 0 0
BITMAP
40
80
00
00
C0
C0
ENDCHAR
STARTCHAR uni063F.fina
ENCODING -1
SWIDTH 554 0
DWIDTH 4 0
BBX 4 3 0 -1
BITMAP
90
90
F0
ENDCHAR
STARTCHAR uni063F.init
ENCODING -1
SWIDTH 271 0
DWIDTH 2 0
BBX 2 6 0 0
BITMAP
80
C0
00
00
C0
C0
ENDCHAR
STARTCHAR uni063F.medi
ENCODING -1
SWIDTH 271 0
DWIDTH 2 0
BBX 2 6 0 0
BITMAP
80
C0
00
00
C0
C0
ENDCHAR
STARTCHAR glyph3951
ENCODING -1
SWIDTH 277 0
DWIDTH 2 0
BBX 2 6 0 -2
BITMAP
40
40
40
40
80
40
ENDCHAR
STARTCHAR glyph3952
ENCODING -1
SWIDTH 946 0
DWIDTH 8 0
BBX 9 12 1 -2
BITMAP
0980
0280
2F80
3E00
0200
2A00
6E00
AE00
FE00
0000
0000
4000
ENDCHAR
STARTCHAR glyph3953
ENCODING -1
SWIDTH 1404 0
DWIDTH 11 0
BBX 15 11 -1 -1
BITMAP
0030
01C6
230A
455E
07F0
4018
2618
5238
FF38
0060
00C0
ENDCHAR
STARTCHAR glyph3954
ENCODING -1
SWIDTH 1102 0
DWIDTH 9 0
BBX 11 11 -1 -2
BITMAP
18C0
E140
03C0
AE00
FD00
0580
1520
1D20
3420
E3C0
0020
ENDCHAR
STARTCHAR glyph3955
ENCODING -1
SWIDTH 1409 0
DWIDTH 11 0
BBX 12 6 0 -2
BITMAP
1160
2920
7FF0
C000
0300
2040
ENDCHAR
STARTCHAR glyph3956
ENCODING -1
SWIDTH 1922 0
DWIDTH 15 0
BBX 15 3 0 -1
BITMAP
0036
002E
FFF0
ENDCHAR
STARTCHAR uni08A0.fina
ENCODING -1
SWIDTH 649 0
DWIDTH 5 0
BBX 5 4 0 0
BITMAP
80
80
78
30
ENDCHAR
STARTCHAR uni08A0.init
ENCODING -1
SWIDTH 271 0
DWIDTH 2 0
BBX 2 2 0 0
BITMAP
C0
C0
ENDCHAR
STARTCHAR uni08A0.medi
ENCODING -1
SWIDTH 271 0
DWIDTH 2 0
BBX 2 2 0 0
BITMAP
C0
C0
ENDCHAR
STARTCHAR uni08A2.fina
ENCODING -1
SWIDTH 558 0
DWIDTH 4 0
BBX 4 8 0 -2
BITMAP
20
00
F0
40
90
80
C0
20
ENDCHAR
STARTCHAR uni08A2.init
ENCODING -1
SWIDTH 523 0
DWIDTH 4 0
BBX 4 5 0 1
BITMAP
20
00
60
30
F0
ENDCHAR
STARTCHAR uni08A2.medi
ENCODING -1
SWIDTH 523 0
DWIDTH 4 0
BBX 4 5 0 1
BITMAP
20
00
60
30
F0
ENDCHAR
STARTCHAR uni08A3.fina
ENCODING -1
SWIDTH 523 0
DWIDTH 4 0
BBX 4 5 0 1
BITMAP
70
40
70
40
F0
ENDCHAR
STARTCHAR uni08A3.init
ENCODING -1
SWIDTH 523 0
DWIDTH 4 0
BBX 4 5 0 1
BITMAP
70
40
70
40
F0
ENDCHAR
STARTCHAR uni08A3.medi
ENCODING -1
SWIDTH 523 0
DWIDTH 4 0
BBX 4 5 0 1
BITMAP
70
40
70
40
F0
ENDCHAR
STARTCHAR uni08A4.fina
ENCODING -1
SWIDTH 757 0
DWIDTH 6 0
BBX 6 7 0 0
BITMAP
08
0C
00
8C
8C
FC
04
ENDCHAR
STARTCHAR uni08A4.init
ENCODING -1
SWIDTH 304 0
DWIDTH 2 0
BBX 2 5 0 0
BITMAP
40
C0
00
C0
40
ENDCHAR
STARTCHAR uni08A4.medi
ENCODING -1
SWIDTH 324 0
DWIDTH 3 0
BBX 3 7 0 0
BITMAP
80
C0
40
40
60
E0
40
ENDCHAR
STARTCHAR uni08A5.fina
ENCODING -1
SWIDTH 612 0
DWIDTH 5 0
BBX 5 7 0 -2
BITMAP
18
00
18
98
88
F0
20
ENDCHAR
STARTCHAR uni08A5.init
ENCODING -1
SWIDTH 304 0
DWIDTH 2 0
BBX 2 7 0 0
BITMAP
40
80
40
C0
00
C0
40
ENDCHAR
STARTCHAR uni08A5.medi
ENCODING -1
SWIDTH 324 0
DWIDTH 3 0
BBX 3 6 0 0
BITMAP
C0
40
40
60
E0
40
ENDCHAR
STARTCHAR uni08A6.fina
ENCODING -1
SWIDTH 451 0
DWIDTH 4 0
BBX 4 6 0 0
BITMAP
10
00
30
10
90
E0
ENDCHAR
STARTCHAR uni08A6.init
ENCODING -1
SWIDTH 234 0
DWIDTH 2 0
BBX 4 6 0 1
BITMAP
20
70
20
60
20
E0
ENDCHAR
STARTCHAR uni08A6.medi
ENCODING -1
SWIDTH 234 0
DWIDTH 2 0
BBX 4 6 0 1
BITMAP
20
70
20
60
20
E0
ENDCHAR
STARTCHAR uni08A7.fina
ENCODING -1
SWIDTH 360 0
DWIDTH 3 0
BBX 3 6 0 -1
BITMAP
40
00
60
E0
80
80
ENDCHAR
STARTCHAR uni08A7.init
ENCODING -1
SWIDTH 415 0
DWIDTH 3 0
BBX 3 5 0 1
BITMAP
40
60
20
40
A0
ENDCHAR
STARTCHAR uni08A7.medi
ENCODING -1
SWIDTH 415 0
DWIDTH 3 0
BBX 3 5 0 1
BITMAP
40
60
20
40
A0
ENDCHAR
STARTCHAR uni08A8.fina
ENCODING -1
SWIDTH 577 0
DWIDTH 5 0
BBX 5 4 0 -2
BITMAP
98
80
60
20
ENDCHAR
STARTCHAR uni08A8.init
ENCODING -1
SWIDTH 271 0
DWIDTH 2 0
BBX 2 2 0 0
BITMAP
C0
C0
ENDCHAR
STARTCHAR uni08A8.medi
ENCODING -1
SWIDTH 271 0
DWIDTH 2 0
BBX 2 2 0 0
BITMAP
C0
C0
ENDCHAR
STARTCHAR uni08A9.fina
ENCODING -1
SWIDTH 577 0
DWIDTH 5 0
BBX 5 6 0 -2
BITMAP
10
00
98
80
60
20
ENDCHAR
STARTCHAR uni08A9.init
ENCODING -1
SWIDTH 271 0
DWIDTH 2 0
BBX 2 6 0 0
BITMAP
40
00
00
00
C0
C0
ENDCHAR
STARTCHAR uni08A9.medi
ENCODING -1
SWIDTH 271 0
DWIDTH 2 0
BBX 2 6 0 0
BITMAP
40
00
00
00
C0
C0
ENDCHAR
STARTCHAR uni08AA.fina
ENCODING -1
SWIDTH 402 0
DWIDTH 3 0
BBX 3 2 0 -1
BITMAP
A0
60
ENDCHAR
STARTCHAR uni08AB.fina
ENCODING -1
SWIDTH 451 0
DWIDTH 4 0
BBX 3 4 1 0
BITMAP
40
20
E0
40
ENDCHAR
STARTCHAR uni08AC.fina
ENCODING -1
SWIDTH 427 0
DWIDTH 3 0
BBX 3 5 0 0
BITMAP
20
60
60
E0
E0
ENDCHAR
STARTCHAR uni08A6.init_uniFE8E.rlig
ENCODING -1
SWIDTH 486 0
DWIDTH 4 0
BBX 5 7 0 1
BITMAP
B0
B8
90
58
50
58
70
ENDCHAR
STARTCHAR uni08A6.medi_uniFE8E.rlig
ENCODING -1
SWIDTH 541 0
DWIDTH 4 0
BBX 5 6 0 1
BITMAP
10
B8
90
F8
10
70
ENDCHAR
STARTCHAR uni05D2_uni05BF.ccmp
ENCODING -1
SWIDTH 456 0
DWIDTH 4 0
BBX 3 5 0 0
BITMAP
60
60
20
60
A0
ENDCHAR
STARTCHAR uni05D3_uni05BF.ccmp
ENCODING -1
SWIDTH 549 0
DWIDTH 4 0
BBX 4 5 0 0
BITMAP
60
F0
30
30
30
ENDCHAR
STARTCHAR uni05D4_uni05BF.ccmp
ENCODING -1
SWIDTH 614 0
DWIDTH 5 0
BBX 3 5 1 0
BITMAP
40
E0
20
A0
A0
ENDCHAR
STARTCHAR uni05EA_uni05BF.ccmp
ENCODING -1
SWIDTH 673 0
DWIDTH 5 0
BBX 5 5 0 0
BITMAP
20
F8
48
48
C8
ENDCHAR
STARTCHAR uni0307.ccmp
ENCODING -1
SWIDTH 0 0
DWIDTH 0 0
BBX 1 1 0 4
BITMAP
00
ENDCHAR
STARTCHAR uni0307_uni0307.ccmp
ENCODING -1
SWIDTH 0 0
DWIDTH 0 0
BBX 2 1 -1 4
BITMAP
C0
ENDCHAR
STARTCHAR uni060C.locl
ENCODING -1
SWIDTH 318 0
DWIDTH 3 0
BBX 1 2 1 1
BITMAP
80
80
ENDCHAR
STARTCHAR uni061B.locl
ENCODING -1
SWIDTH 318 0
DWIDTH 3 0
BBX 1 4 1 1
BITMAP
80
00
80
80
ENDCHAR
STARTCHAR uni0645.locl
ENCODING -1
SWIDTH 559 0
DWIDTH 4 0
BBX 5 4 -1 0
BITMAP
10
28
38
C0
ENDCHAR
STARTCHAR uniFEE2.locl
ENCODING -1
SWIDTH 559 0
DWIDTH 4 0
BBX 5 4 -1 0
BITMAP
10
28
38
C0
ENDCHAR
STARTCHAR uni0765.ss01
ENCODING -1
SWIDTH 559 0
DWIDTH 4 0
BBX 3 5 1 0
BITMAP
20
20
40
60
80
ENDCHAR
STARTCHAR glyph4089
ENCODING -1
SWIDTH 559 0
DWIDTH 4 0
BBX 3 5 1 0
BITMAP
20
20
40
60
80
ENDCHAR
STARTCHAR uni0766.ss01
ENCODING -1
SWIDTH 559 0
DWIDTH 4 0
BBX 3 4 1 0
BITMAP
20
40
60
A0
ENDCHAR
STARTCHAR glyph4091
ENCODING -1
SWIDTH 559 0
DWIDTH 4 0
BBX 3 4 1 0
BITMAP
20
40
60
A0
ENDCHAR
STARTCHAR uni06FE.locl
ENCODING -1
SWIDTH 559 0
DWIDTH 4 0
BBX 5 6 -1 -2
BITMAP
10
28
38
C0
28
28
ENDCHAR
STARTCHAR uni08A7.ss01
ENCODING -1
SWIDTH 559 0
DWIDTH 4 0
BBX 3 5 1 0
BITMAP
40
20
40
60
80
ENDCHAR
STARTCHAR uni08A7.fina.ss01
ENCODING -1
SWIDTH 559 0
DWIDTH 4 0
BBX 3 5 1 0
BITMAP
40
20
40
60
80
ENDCHAR
STARTCHAR uni066F.fina
ENCODING -1
SWIDTH 612 0
DWIDTH 5 0
BBX 6 5 0 -1
BITMAP
0C
14
5C
84
F8
ENDCHAR
STARTCHAR uni060D.locl
ENCODING -1
SWIDTH 394 0
DWIDTH 3 0
BBX 3 5 0 1
BITMAP
20
40
40
40
80
ENDCHAR
STARTCHAR uni066B.locl
ENCODING -1
SWIDTH 273 0
DWIDTH 2 0
BBX 3 4 0 0
BITMAP
20
40
40
80
ENDCHAR
STARTCHAR uni066C.locl
ENCODING -1
SWIDTH 184 0
DWIDTH 1 0
BBX 2 2 0 4
BITMAP
C0
80
ENDCHAR
STARTCHAR uni0627_uni0627_uniFEDF_uniFEE0_uniFBAB.liga
ENCODING -1
SWIDTH 851 0
DWIDTH 7 0
BBX 7 4 0 1
BITMAP
08
18
52
F8
ENDCHAR
STARTCHAR glyph4199
ENCODING -1
SWIDTH 0 0
DWIDTH 0 0
BBX 5 1 -1 6
BITMAP
F8
ENDCHAR
STARTCHAR uni08A1.fina
ENCODING -1
SWIDTH 649 0
DWIDTH 5 0
BBX 5 3 0 1
BITMAP
80
80
78
ENDCHAR
STARTCHAR uni08A1.init
ENCODING -1
SWIDTH 271 0
DWIDTH 2 0
BBX 2 4 0 1
BITMAP
40
00
00
C0
ENDCHAR
STARTCHAR uni08A1.medi
ENCODING -1
SWIDTH 271 0
DWIDTH 2 0
BBX 2 4 0 1
BITMAP
40
00
00
C0
ENDCHAR
STARTCHAR uni08AE.fina
ENCODING -1
SWIDTH 342 0
DWIDTH 3 0
BBX 3 5 0 -1
BITMAP
20
20
E0
20
40
ENDCHAR
STARTCHAR uni08AF.fina
ENCODING -1
SWIDTH 1062 0
DWIDTH 9 0
BBX 9 5 0 -1
BITMAP
0300
0480
8F80
D000
2000
ENDCHAR
STARTCHAR uni08AF.init
ENCODING -1
SWIDTH 771 0
DWIDTH 6 0
BBX 6 6 0 -2
BITMAP
0C
50
FC
18
10
08
ENDCHAR
STARTCHAR uni08AF.medi
ENCODING -1
SWIDTH 771 0
DWIDTH 6 0
BBX 6 6 0 -2
BITMAP
0C
50
FC
18
10
08
ENDCHAR
STARTCHAR uni08B0.fina
ENCODING -1
SWIDTH 878 0
DWIDTH 7 0
BBX 7 5 0 1
BITMAP
04
18
9C
8C
FA
ENDCHAR
STARTCHAR uni08B0.init
ENCODING -1
SWIDTH 360 0
DWIDTH 3 0
BBX 3 5 0 1
BITMAP
20
C0
60
20
E0
ENDCHAR
STARTCHAR uni08B0.medi
ENCODING -1
SWIDTH 541 0
DWIDTH 4 0
BBX 4 5 0 1
BITMAP
20
40
60
20
D0
ENDCHAR
STARTCHAR uni08B1.fina
ENCODING -1
SWIDTH 238 0
DWIDTH 2 0
BBX 2 5 0 -1
BITMAP
40
C0
C0
40
40
ENDCHAR
STARTCHAR uni08B2.fina
ENCODING -1
SWIDTH 432 0
DWIDTH 3 0
BBX 2 6 1 -1
BITMAP
40
00
00
00
40
80
ENDCHAR
STARTCHAR uni08B3.fina
ENCODING -1
SWIDTH 468 0
DWIDTH 4 0
BBX 4 6 0 -2
BITMAP
60
40
B0
C0
C0
20
ENDCHAR
STARTCHAR uni08B3.init
ENCODING -1
SWIDTH 541 0
DWIDTH 4 0
BBX 4 6 0 -1
BITMAP
40
80
F0
C0
60
20
ENDCHAR
STARTCHAR uni08B3.medi
ENCODING -1
SWIDTH 360 0
DWIDTH 3 0
BBX 3 5 0 -1
BITMAP
C0
40
E0
00
40
ENDCHAR
STARTCHAR uni08B4.fina
ENCODING -1
SWIDTH 541 0
DWIDTH 4 0
BBX 4 7 0 -1
BITMAP
10
10
20
80
F0
20
20
ENDCHAR
STARTCHAR uni08B4.init
ENCODING -1
SWIDTH 360 0
DWIDTH 3 0
BBX 3 7 0 -1
BITMAP
20
40
40
20
E0
40
40
ENDCHAR
STARTCHAR uni08B4.medi
ENCODING -1
SWIDTH 360 0
DWIDTH 3 0
BBX 3 7 0 -1
BITMAP
20
40
40
20
E0
40
40
ENDCHAR
STARTCHAR uni08B6.fina
ENCODING -1
SWIDTH 649 0
DWIDTH 5 0
BBX 5 4 0 1
BITMAP
30
A0
80
78
ENDCHAR
STARTCHAR uni08B6.init
ENCODING -1
SWIDTH 271 0
DWIDTH 2 0
BBX 2 5 0 0
BITMAP
C0
80
00
C0
40
ENDCHAR
STARTCHAR uni08B6.medi
ENCODING -1
SWIDTH 271 0
DWIDTH 2 0
BBX 2 5 0 0
BITMAP
C0
80
00
C0
40
ENDCHAR
STARTCHAR uni08B7.fina
ENCODING -1
SWIDTH 649 0
DWIDTH 5 0
BBX 5 6 0 -1
BITMAP
30
A0
80
78
10
20
ENDCHAR
STARTCHAR uni08B7.init
ENCODING -1
SWIDTH 271 0
DWIDTH 2 0
BBX 2 7 0 -2
BITMAP
C0
80
00
C0
C0
00
40
ENDCHAR
STARTCHAR uni08B7.medi
ENCODING -1
SWIDTH 271 0
DWIDTH 2 0
BBX 2 7 0 -2
BITMAP
C0
80
00
C0
C0
00
40
ENDCHAR
STARTCHAR uni08B8.fina
ENCODING -1
SWIDTH 649 0
DWIDTH 5 0
BBX 5 4 0 1
BITMAP
20
C0
80
78
ENDCHAR
STARTCHAR uni08B8.init
ENCODING -1
SWIDTH 387 0
DWIDTH 3 0
BBX 3 5 0 1
BITMAP
40
00
E0
20
E0
ENDCHAR
STARTCHAR uni08B8.medi
ENCODING -1
SWIDTH 387 0
DWIDTH 3 0
BBX 3 5 0 1
BITMAP
40
00
E0
20
E0
ENDCHAR
STARTCHAR uni08B9.fina
ENCODING -1
SWIDTH 432 0
DWIDTH 3 0
BBX 2 6 1 -1
BITMAP
40
00
00
00
40
80
ENDCHAR
STARTCHAR uni08BA.fina
ENCODING -1
SWIDTH 577 0
DWIDTH 5 0
BBX 5 4 0 -2
BITMAP
98
80
60
20
ENDCHAR
STARTCHAR uni08BA.init
ENCODING -1
SWIDTH 271 0
DWIDTH 2 0
BBX 2 5 0 0
BITMAP
40
00
00
C0
C0
ENDCHAR
STARTCHAR uni08BA.medi
ENCODING -1
SWIDTH 271 0
DWIDTH 2 0
BBX 2 5 0 0
BITMAP
40
00
00
C0
C0
ENDCHAR
STARTCHAR uni08BB.fina
ENCODING -1
SWIDTH 757 0
DWIDTH 6 0
BBX 6 3 0 1
BITMAP
8C
8C
FC
ENDCHAR
STARTCHAR uni08BB.init
ENCODING -1
SWIDTH 304 0
DWIDTH 2 0
BBX 2 5 0 0
BITMAP
40
C0
00
C0
40
ENDCHAR
STARTCHAR uni08BB.medi
ENCODING -1
SWIDTH 324 0
DWIDTH 3 0
BBX 3 5 0 0
BITMAP
40
40
60
E0
40
ENDCHAR
STARTCHAR uni08BC.fina
ENCODING -1
SWIDTH 612 0
DWIDTH 5 0
BBX 6 5 0 -1
BITMAP
0C
14
5C
84
F8
ENDCHAR
STARTCHAR uni08BC.init
ENCODING -1
SWIDTH 304 0
DWIDTH 2 0
BBX 2 6 0 1
BITMAP
40
00
40
C0
00
C0
ENDCHAR
STARTCHAR uni08BC.medi
ENCODING -1
SWIDTH 324 0
DWIDTH 3 0
BBX 3 5 0 1
BITMAP
40
40
40
60
E0
ENDCHAR
STARTCHAR uni08BD.fina
ENCODING -1
SWIDTH 541 0
DWIDTH 4 0
BBX 4 2 0 0
BITMAP
80
D0
ENDCHAR
STARTCHAR uni08BD.init
ENCODING -1
SWIDTH 271 0
DWIDTH 2 0
BBX 2 5 0 1
BITMAP
40
00
00
00
C0
ENDCHAR
STARTCHAR uni08BD.medi
ENCODING -1
SWIDTH 271 0
DWIDTH 2 0
BBX 2 5 0 1
BITMAP
40
00
00
00
C0
ENDCHAR
STARTCHAR glyph4483
ENCODING -1
SWIDTH 0 0
DWIDTH 0 0
BBX 2 3 -1 0
BITMAP
80
00
C0
ENDCHAR
STARTCHAR glyph4484
ENCODING -1
SWIDTH 0 0
DWIDTH 0 0
BBX 2 3 -1 0
BITMAP
40
00
C0
ENDCHAR
STARTCHAR glyph4485
ENCODING -1
SWIDTH 0 0
DWIDTH 0 0
BBX 2 3 -1 0
BITMAP
80
00
C0
ENDCHAR
STARTCHAR uniFED3_uniFEE0_uniFEE0_uniFBAB.liga
ENCODING -1
SWIDTH 1188 0
DWIDTH 10 0
BBX 9 6 0 1
BITMAP
0100
1000
0080
5580
CC80
FF80
ENDCHAR
STARTCHAR uniFED3_uniFEE0_uniFEE0_uniFBAB.liga
ENCODING -1
SWIDTH 1188 0
DWIDTH 10 0
BBX 9 6 0 1
BITMAP
0100
0000
0080
1580
4C80
FF80
ENDCHAR
STARTCHAR glyph4546
ENCODING -1
SWIDTH 0 0
DWIDTH 0 0
BBX 1 2 0 4
BITMAP
80
80
ENDCHAR
ENDFONT
