STARTFONT 2.1
FONT -FontForge-Arial-Bold-R-Normal--15-140-75-75-P-76-ISO10646-1
SIZE 14 75 75
FONTBOUNDINGBOX 31 20 -2 -5
COMMENT "Generated by fontforge, http://fontforge.sourceforge.net"
COMMENT "(c) 2017 The Monotype Corporation. All Rights Reserved. "
COMMENT ""
COMMENT "Hebrew OpenType Layout logic copyright (c) 2003 & 2007, Ralph Hancock & John Hudson. This layout logic for Biblical Hebrew is open source software under the MIT License; see embedded license description for details."
STARTPROPERTIES 40
FOUNDRY "FontForge"
FAMILY_NAME "Arial"
WEIGHT_NAME "Bold"
SLANT "R"
SETWIDTH_NAME "Normal"
ADD_STYLE_NAME ""
PIXEL_SIZE 15
POINT_SIZE 140
RESOLUTION_X 75
RESOLUTION_Y 75
SPACING "P"
AVERAGE_WIDTH 76
CHARSET_REGISTRY "ISO10646"
CHARSET_ENCODING "1"
FONTNAME_REGISTRY ""
CHARSET_COLLECTIONS "ISO10646-1"
FONT_NAME "Arial-BoldMT"
FACE_NAME "Arial Bold"
COPYRIGHT "(c) 2017 The Monotype Corporation. All Rights Reserved. "
FONT_VERSION "7.03"
FONT_ASCENT 12
FONT_DESCENT 3
UNDERLINE_POSITION -2
UNDERLINE_THICKNESS 2
X_HEIGHT 7
CAP_HEIGHT 10
RAW_ASCENT 799
RAW_DESCENT 200
NORM_SPACE 4
RELATIVE_WEIGHT 70
RELATIVE_SETWIDTH 50
SUPERSCRIPT_X 0
SUPERSCRIPT_Y 7
SUPERSCRIPT_SIZE 9
SUBSCRIPT_X 0
SUBSCRIPT_Y 2
SUBSCRIPT_SIZE 9
FIGURE_WIDTH 8
AVG_LOWERCASE_WIDTH 78
AVG_UPPERCASE_WIDTH 102
ENDPROPERTIES
CHARS 266
STARTCHAR space
ENCODING 32
SWIDTH 277 0
DWIDTH 4 0
BBX 1 1 0 0
BITMAP
00
ENDCHAR
STARTCHAR exclam
ENCODING 33
SWIDTH 333 0
DWIDTH 4 0
BBX 2 11 1 0
BITMAP
C0
C0
C0
C0
C0
C0
C0
C0
00
C0
C0
ENDCHAR
STARTCHAR quotedbl
ENCODING 34
SWIDTH 474 0
DWIDTH 7 0
BBX 6 4 1 7
BITMAP
CC
CC
CC
CC
ENDCHAR
STARTCHAR numbersign
ENCODING 35
SWIDTH 556 0
DWIDTH 8 0
BBX 7 11 0 0
BITMAP
36
36
36
FE
FE
6C
6C
FE
FE
D8
D8
ENDCHAR
STARTCHAR dollar
ENCODING 36
SWIDTH 556 0
DWIDTH 8 0
BBX 7 13 0 -1
BITMAP
10
38
7C
D6
D0
F0
7C
1E
D6
D6
7C
38
10
ENDCHAR
STARTCHAR percent
ENCODING 37
SWIDTH 889 0
DWIDTH 13 0
BBX 12 11 0 0
BITMAP
70C0
D980
D980
DB00
7300
0600
06E0
0DB0
0DB0
19B0
18E0
ENDCHAR
STARTCHAR ampersand
ENCODING 38
SWIDTH 722 0
DWIDTH 11 0
BBX 10 11 1 0
BITMAP
3C00
7E00
6600
6600
3C00
7800
CD80
CF80
C780
FFC0
7C80
ENDCHAR
STARTCHAR quotesingle
ENCODING 39
SWIDTH 237 0
DWIDTH 4 0
BBX 2 4 1 7
BITMAP
C0
C0
C0
C0
ENDCHAR
STARTCHAR parenleft
ENCODING 40
SWIDTH 333 0
DWIDTH 5 0
BBX 4 14 1 -3
BITMAP
30
60
60
E0
C0
C0
C0
C0
C0
C0
60
60
60
30
ENDCHAR
STARTCHAR parenright
ENCODING 41
SWIDTH 333 0
DWIDTH 5 0
BBX 4 14 0 -3
BITMAP
C0
60
60
60
30
30
30
30
30
30
60
60
60
C0
ENDCHAR
STARTCHAR asterisk
ENCODING 42
SWIDTH 389 0
DWIDTH 6 0
BBX 5 4 0 7
BITMAP
20
F8
20
D8
ENDCHAR
STARTCHAR plus
ENCODING 43
SWIDTH 583 0
DWIDTH 9 0
BBX 8 8 0 2
BITMAP
18
18
18
FF
FF
18
18
18
ENDCHAR
STARTCHAR comma
ENCODING 44
SWIDTH 277 0
DWIDTH 4 0
BBX 2 4 1 -2
BITMAP
C0
C0
40
80
ENDCHAR
STARTCHAR hyphen
ENCODING 45
SWIDTH 333 0
DWIDTH 5 0
BBX 4 2 1 3
BITMAP
F0
F0
ENDCHAR
STARTCHAR period
ENCODING 46
SWIDTH 277 0
DWIDTH 4 0
BBX 2 2 1 0
BITMAP
C0
C0
ENDCHAR
STARTCHAR slash
ENCODING 47
SWIDTH 277 0
DWIDTH 4 0
BBX 4 11 0 0
BITMAP
30
30
30
60
60
60
60
60
C0
C0
C0
ENDCHAR
STARTCHAR zero
ENCODING 48
SWIDTH 556 0
DWIDTH 8 0
BBX 7 11 0 0
BITMAP
38
7C
EE
C6
C6
C6
C6
C6
EE
7C
38
ENDCHAR
STARTCHAR one
ENCODING 49
SWIDTH 556 0
DWIDTH 8 0
BBX 5 11 1 0
BITMAP
18
38
78
D8
98
18
18
18
18
18
18
ENDCHAR
STARTCHAR two
ENCODING 50
SWIDTH 556 0
DWIDTH 8 0
BBX 7 11 0 0
BITMAP
3C
7E
C6
C6
06
0C
18
30
60
FE
FE
ENDCHAR
STARTCHAR three
ENCODING 51
SWIDTH 556 0
DWIDTH 8 0
BBX 7 11 0 0
BITMAP
7C
FE
C6
06
1C
1C
06
C6
E6
7C
38
ENDCHAR
STARTCHAR four
ENCODING 52
SWIDTH 556 0
DWIDTH 8 0
BBX 7 11 0 0
BITMAP
0C
1C
1C
3C
2C
6C
CC
FE
FE
0C
0C
ENDCHAR
STARTCHAR five
ENCODING 53
SWIDTH 556 0
DWIDTH 8 0
BBX 7 11 0 0
BITMAP
7E
7E
60
F8
FC
C6
06
C6
E6
7C
38
ENDCHAR
STARTCHAR six
ENCODING 54
SWIDTH 556 0
DWIDTH 8 0
BBX 7 11 0 0
BITMAP
3C
7E
E6
C0
FC
FE
C6
C6
C6
7C
38
ENDCHAR
STARTCHAR seven
ENCODING 55
SWIDTH 556 0
DWIDTH 8 0
BBX 7 11 0 0
BITMAP
FE
FE
0C
18
18
30
30
30
60
60
60
ENDCHAR
STARTCHAR eight
ENCODING 56
SWIDTH 556 0
DWIDTH 8 0
BBX 7 11 0 0
BITMAP
38
7C
C6
C6
7C
7C
C6
C6
C6
7C
38
ENDCHAR
STARTCHAR nine
ENCODING 57
SWIDTH 556 0
DWIDTH 8 0
BBX 7 11 0 0
BITMAP
38
7C
C6
C6
C6
FE
7E
06
CE
FC
78
ENDCHAR
STARTCHAR colon
ENCODING 58
SWIDTH 333 0
DWIDTH 4 0
BBX 2 8 1 0
BITMAP
C0
C0
00
00
00
00
C0
C0
ENDCHAR
STARTCHAR semicolon
ENCODING 59
SWIDTH 333 0
DWIDTH 4 0
BBX 2 10 1 -2
BITMAP
C0
C0
00
00
00
00
C0
C0
40
80
ENDCHAR
STARTCHAR less
ENCODING 60
SWIDTH 583 0
DWIDTH 9 0
BBX 7 8 0 1
BITMAP
02
0E
3C
F0
F0
3C
0E
02
ENDCHAR
STARTCHAR equal
ENCODING 61
SWIDTH 583 0
DWIDTH 9 0
BBX 8 5 0 3
BITMAP
FF
FF
00
FF
FF
ENDCHAR
STARTCHAR greater
ENCODING 62
SWIDTH 583 0
DWIDTH 9 0
BBX 7 8 0 1
BITMAP
80
E0
78
1E
1E
78
E0
80
ENDCHAR
STARTCHAR question
ENCODING 63
SWIDTH 610 0
DWIDTH 9 0
BBX 8 11 0 0
BITMAP
3C
7E
C3
03
07
0E
1C
18
00
18
18
ENDCHAR
STARTCHAR at
ENCODING 64
SWIDTH 975 0
DWIDTH 15 0
BBX 14 15 0 -4
BITMAP
07C0
1FF0
3838
777C
6FEC
CCCC
D8CC
D8CC
D9D8
DFF0
EEE0
600C
7838
3FF0
0FC0
ENDCHAR
STARTCHAR A
ENCODING 65
SWIDTH 722 0
DWIDTH 9 0
BBX 9 11 0 0
BITMAP
1C00
1C00
3600
3600
3600
6300
7F00
7F00
C180
C180
C180
ENDCHAR
STARTCHAR B
ENCODING 66
SWIDTH 722 0
DWIDTH 11 0
BBX 9 11 1 0
BITMAP
FF00
FF80
C180
C180
FF00
FF80
C180
C180
C180
FF80
FF00
ENDCHAR
STARTCHAR C
ENCODING 67
SWIDTH 722 0
DWIDTH 11 0
BBX 9 11 1 0
BITMAP
1E00
7F00
6380
C100
C000
C000
C000
C100
6380
7F00
1E00
ENDCHAR
STARTCHAR D
ENCODING 68
SWIDTH 722 0
DWIDTH 11 0
BBX 9 11 1 0
BITMAP
FC00
FF00
C300
C180
C180
C180
C180
C180
C300
FF00
FC00
ENDCHAR
STARTCHAR E
ENCODING 69
SWIDTH 666 0
DWIDTH 10 0
BBX 8 11 1 0
BITMAP
FF
FF
C0
C0
FF
FF
C0
C0
C0
FF
FF
ENDCHAR
STARTCHAR F
ENCODING 70
SWIDTH 610 0
DWIDTH 9 0
BBX 7 11 1 0
BITMAP
FE
FE
C0
C0
FC
FC
C0
C0
C0
C0
C0
ENDCHAR
STARTCHAR G
ENCODING 71
SWIDTH 777 0
DWIDTH 12 0
BBX 10 11 1 0
BITMAP
1F00
7F80
61C0
C080
C000
C7C0
C7C0
C0C0
61C0
7F80
1F00
ENDCHAR
STARTCHAR H
ENCODING 72
SWIDTH 722 0
DWIDTH 11 0
BBX 9 11 1 0
BITMAP
C180
C180
C180
C180
FF80
FF80
C180
C180
C180
C180
C180
ENDCHAR
STARTCHAR I
ENCODING 73
SWIDTH 277 0
DWIDTH 4 0
BBX 2 11 1 0
BITMAP
C0
C0
C0
C0
C0
C0
C0
C0
C0
C0
C0
ENDCHAR
STARTCHAR J
ENCODING 74
SWIDTH 556 0
DWIDTH 8 0
BBX 7 11 0 0
BITMAP
06
06
06
06
06
06
06
C6
E6
7C
38
ENDCHAR
STARTCHAR K
ENCODING 75
SWIDTH 722 0
DWIDTH 11 0
BBX 9 11 1 0
BITMAP
C180
C300
C600
CC00
DC00
FC00
E600
C600
C300
C380
C180
ENDCHAR
STARTCHAR L
ENCODING 76
SWIDTH 610 0
DWIDTH 9 0
BBX 7 11 1 0
BITMAP
C0
C0
C0
C0
C0
C0
C0
C0
C0
FE
FE
ENDCHAR
STARTCHAR M
ENCODING 77
SWIDTH 833 0
DWIDTH 13 0
BBX 11 11 1 0
BITMAP
E0E0
E0E0
F1E0
F1E0
D160
DB60
DB60
CE60
CE60
CE60
C460
ENDCHAR
STARTCHAR N
ENCODING 78
SWIDTH 722 0
DWIDTH 11 0
BBX 9 11 1 0
BITMAP
C180
E180
F180
F180
D980
D980
CD80
C780
C780
C380
C180
ENDCHAR
STARTCHAR O
ENCODING 79
SWIDTH 777 0
DWIDTH 12 0
BBX 10 11 1 0
BITMAP
1E00
7F80
6180
C0C0
C0C0
C0C0
C0C0
C0C0
6180
7F80
1E00
ENDCHAR
STARTCHAR P
ENCODING 80
SWIDTH 666 0
DWIDTH 10 0
BBX 8 11 1 0
BITMAP
FE
FF
C3
C3
C3
FE
FC
C0
C0
C0
C0
ENDCHAR
STARTCHAR Q
ENCODING 81
SWIDTH 777 0
DWIDTH 12 0
BBX 10 12 1 -1
BITMAP
1E00
7F80
6180
C0C0
C0C0
C0C0
C0C0
CCC0
6780
7F80
1D80
00C0
ENDCHAR
STARTCHAR R
ENCODING 82
SWIDTH 722 0
DWIDTH 11 0
BBX 10 11 1 0
BITMAP
FF00
FF80
C180
C180
C180
FF00
FE00
C700
C380
C180
C1C0
ENDCHAR
STARTCHAR S
ENCODING 83
SWIDTH 666 0
DWIDTH 10 0
BBX 8 11 1 0
BITMAP
3C
7F
C3
C0
F8
7E
0F
03
C3
FE
3C
ENDCHAR
STARTCHAR T
ENCODING 84
SWIDTH 610 0
DWIDTH 10 0
BBX 8 11 1 0
BITMAP
FF
FF
18
18
18
18
18
18
18
18
18
ENDCHAR
STARTCHAR U
ENCODING 85
SWIDTH 722 0
DWIDTH 11 0
BBX 9 11 1 0
BITMAP
C180
C180
C180
C180
C180
C180
C180
C180
E380
7F00
3E00
ENDCHAR
STARTCHAR V
ENCODING 86
SWIDTH 666 0
DWIDTH 9 0
BBX 9 11 0 0
BITMAP
C180
C180
6300
6300
6300
3600
3600
3600
1C00
1C00
1C00
ENDCHAR
STARTCHAR W
ENCODING 87
SWIDTH 943 0
DWIDTH 13 0
BBX 13 11 0 0
BITMAP
C718
C718
E738
6DB0
6DB0
6DB0
6DB0
68B0
38E0
38E0
38E0
ENDCHAR
STARTCHAR X
ENCODING 88
SWIDTH 666 0
DWIDTH 10 0
BBX 8 11 1 0
BITMAP
C3
E7
66
3C
3C
18
3C
3C
66
E7
C3
ENDCHAR
STARTCHAR Y
ENCODING 89
SWIDTH 666 0
DWIDTH 10 0
BBX 8 11 1 0
BITMAP
C3
C3
66
6E
3C
18
18
18
18
18
18
ENDCHAR
STARTCHAR Z
ENCODING 90
SWIDTH 610 0
DWIDTH 8 0
BBX 8 11 0 0
BITMAP
FF
FF
06
0C
1C
18
30
70
60
FF
FF
ENDCHAR
STARTCHAR bracketleft
ENCODING 91
SWIDTH 333 0
DWIDTH 5 0
BBX 4 14 1 -3
BITMAP
F0
F0
C0
C0
C0
C0
C0
C0
C0
C0
C0
C0
F0
F0
ENDCHAR
STARTCHAR backslash
ENCODING 92
SWIDTH 277 0
DWIDTH 4 0
BBX 4 11 0 0
BITMAP
C0
C0
C0
60
60
60
60
60
30
30
30
ENDCHAR
STARTCHAR bracketright
ENCODING 93
SWIDTH 333 0
DWIDTH 5 0
BBX 4 14 0 -3
BITMAP
F0
F0
30
30
30
30
30
30
30
30
30
30
F0
F0
ENDCHAR
STARTCHAR asciicircum
ENCODING 94
SWIDTH 583 0
DWIDTH 9 0
BBX 8 6 0 5
BITMAP
18
3C
3C
66
66
C3
ENDCHAR
STARTCHAR underscore
ENCODING 95
SWIDTH 556 0
DWIDTH 8 0
BBX 8 2 0 -3
BITMAP
FF
FF
ENDCHAR
STARTCHAR grave
ENCODING 96
SWIDTH 333 0
DWIDTH 5 0
BBX 3 2 0 9
BITMAP
C0
60
ENDCHAR
STARTCHAR a
ENCODING 97
SWIDTH 556 0
DWIDTH 8 0
BBX 7 8 1 0
BITMAP
78
FC
0C
3C
6C
CC
FC
76
ENDCHAR
STARTCHAR b
ENCODING 98
SWIDTH 610 0
DWIDTH 9 0
BBX 7 11 1 0
BITMAP
C0
C0
C0
D8
FC
EE
C6
C6
CE
FC
D8
ENDCHAR
STARTCHAR c
ENCODING 99
SWIDTH 556 0
DWIDTH 8 0
BBX 6 8 1 0
BITMAP
38
7C
CC
C0
C0
CC
7C
38
ENDCHAR
STARTCHAR d
ENCODING 100
SWIDTH 610 0
DWIDTH 9 0
BBX 7 11 1 0
BITMAP
06
06
06
36
7E
EE
C6
C6
EE
7E
36
ENDCHAR
STARTCHAR e
ENCODING 101
SWIDTH 556 0
DWIDTH 9 0
BBX 7 8 1 0
BITMAP
38
7C
C6
FE
FE
C0
7E
3C
ENDCHAR
STARTCHAR f
ENCODING 102
SWIDTH 333 0
DWIDTH 5 0
BBX 6 11 0 0
BITMAP
3C
7C
60
F8
F8
60
60
60
60
60
60
ENDCHAR
STARTCHAR g
ENCODING 103
SWIDTH 610 0
DWIDTH 9 0
BBX 7 11 1 -3
BITMAP
36
7E
EE
C6
C6
EE
7E
36
C6
FE
7C
ENDCHAR
STARTCHAR h
ENCODING 104
SWIDTH 610 0
DWIDTH 9 0
BBX 7 11 1 0
BITMAP
C0
C0
C0
DC
FE
E6
C6
C6
C6
C6
C6
ENDCHAR
STARTCHAR i
ENCODING 105
SWIDTH 277 0
DWIDTH 4 0
BBX 2 11 1 0
BITMAP
C0
C0
00
C0
C0
C0
C0
C0
C0
C0
C0
ENDCHAR
STARTCHAR j
ENCODING 106
SWIDTH 277 0
DWIDTH 4 0
BBX 4 14 -1 -3
BITMAP
30
30
00
30
30
30
30
30
30
30
30
30
F0
E0
ENDCHAR
STARTCHAR k
ENCODING 107
SWIDTH 556 0
DWIDTH 8 0
BBX 6 11 1 0
BITMAP
C0
C0
C0
CC
D8
F0
F0
F8
D8
CC
CC
ENDCHAR
STARTCHAR l
ENCODING 108
SWIDTH 277 0
DWIDTH 4 0
BBX 2 11 1 0
BITMAP
C0
C0
C0
C0
C0
C0
C0
C0
C0
C0
C0
ENDCHAR
STARTCHAR m
ENCODING 109
SWIDTH 889 0
DWIDTH 12 0
BBX 10 8 1 0
BITMAP
D980
FFC0
CCC0
CCC0
CCC0
CCC0
CCC0
CCC0
ENDCHAR
STARTCHAR n
ENCODING 110
SWIDTH 610 0
DWIDTH 9 0
BBX 7 8 1 0
BITMAP
DC
FE
E6
C6
C6
C6
C6
C6
ENDCHAR
STARTCHAR o
ENCODING 111
SWIDTH 610 0
DWIDTH 9 0
BBX 7 8 1 0
BITMAP
38
7C
EE
C6
C6
EE
7C
38
ENDCHAR
STARTCHAR p
ENCODING 112
SWIDTH 610 0
DWIDTH 9 0
BBX 7 11 1 -3
BITMAP
D8
FC
EE
C6
C6
EE
FC
D8
C0
C0
C0
ENDCHAR
STARTCHAR q
ENCODING 113
SWIDTH 610 0
DWIDTH 9 0
BBX 7 11 1 -3
BITMAP
36
7E
EE
C6
C6
EE
7E
36
06
06
06
ENDCHAR
STARTCHAR r
ENCODING 114
SWIDTH 389 0
DWIDTH 6 0
BBX 5 8 1 0
BITMAP
D8
F8
E0
C0
C0
C0
C0
C0
ENDCHAR
STARTCHAR s
ENCODING 115
SWIDTH 556 0
DWIDTH 8 0
BBX 6 8 1 0
BITMAP
78
FC
C0
F8
7C
0C
FC
78
ENDCHAR
STARTCHAR t
ENCODING 116
SWIDTH 333 0
DWIDTH 5 0
BBX 5 10 0 0
BITMAP
20
60
F8
F8
60
60
60
60
78
38
ENDCHAR
STARTCHAR u
ENCODING 117
SWIDTH 610 0
DWIDTH 9 0
BBX 7 8 1 0
BITMAP
C6
C6
C6
C6
C6
CE
FE
76
ENDCHAR
STARTCHAR v
ENCODING 118
SWIDTH 556 0
DWIDTH 9 0
BBX 7 8 1 0
BITMAP
C6
C6
C6
6C
6C
38
38
38
ENDCHAR
STARTCHAR w
ENCODING 119
SWIDTH 777 0
DWIDTH 11 0
BBX 11 8 0 0
BITMAP
C460
CE60
6EC0
6AC0
6AC0
3B80
3B80
3180
ENDCHAR
STARTCHAR x
ENCODING 120
SWIDTH 556 0
DWIDTH 8 0
BBX 6 8 1 0
BITMAP
CC
CC
78
30
30
78
CC
CC
ENDCHAR
STARTCHAR y
ENCODING 121
SWIDTH 556 0
DWIDTH 7 0
BBX 7 11 0 -3
BITMAP
C6
C6
6C
6C
6C
6C
38
38
38
30
70
ENDCHAR
STARTCHAR z
ENCODING 122
SWIDTH 500 0
DWIDTH 8 0
BBX 6 8 1 0
BITMAP
FC
FC
0C
18
30
60
FC
FC
ENDCHAR
STARTCHAR braceleft
ENCODING 123
SWIDTH 389 0
DWIDTH 6 0
BBX 5 14 1 -3
BITMAP
38
78
60
60
60
60
C0
C0
60
60
60
60
78
38
ENDCHAR
STARTCHAR bar
ENCODING 124
SWIDTH 279 0
DWIDTH 4 0
BBX 2 14 1 -3
BITMAP
C0
C0
C0
C0
C0
C0
C0
C0
C0
C0
C0
C0
C0
C0
ENDCHAR
STARTCHAR braceright
ENCODING 125
SWIDTH 389 0
DWIDTH 6 0
BBX 5 14 0 -3
BITMAP
E0
F0
30
30
30
30
18
18
30
30
30
30
F0
E0
ENDCHAR
STARTCHAR asciitilde
ENCODING 126
SWIDTH 583 0
DWIDTH 9 0
BBX 8 3 0 4
BITMAP
71
FF
8E
ENDCHAR
STARTCHAR space.dup1
ENCODING 160
SWIDTH 277 0
DWIDTH 4 0
BBX 1 1 0 0
BITMAP
00
ENDCHAR
STARTCHAR hyphen.dup2
ENCODING 173
SWIDTH 333 0
DWIDTH 5 0
BBX 4 2 1 3
BITMAP
F0
F0
ENDCHAR
STARTCHAR semicolon.dup3
ENCODING 894
SWIDTH 333 0
DWIDTH 4 0
BBX 2 10 1 -2
BITMAP
C0
C0
00
00
00
00
C0
C0
40
80
ENDCHAR
STARTCHAR uni076E.medi
ENCODING -1
SWIDTH 523 0
DWIDTH 8 0
BBX 9 8 -1 -1
BITMAP
3C00
0E00
0700
FF80
FF80
0800
0800
0C00
ENDCHAR
STARTCHAR uni076F.fina
ENCODING -1
SWIDTH 558 0
DWIDTH 8 0
BBX 8 11 0 -3
BITMAP
3F
7E
BC
64
57
0B
98
44
60
7F
3C
ENDCHAR
STARTCHAR uni076F.init
ENCODING -1
SWIDTH 523 0
DWIDTH 8 0
BBX 9 10 -1 -3
BITMAP
3C00
0E00
0700
FF80
FF80
0800
0400
0C00
0400
0800
ENDCHAR
STARTCHAR uni076F.medi
ENCODING -1
SWIDTH 523 0
DWIDTH 8 0
BBX 9 10 -1 -3
BITMAP
3C00
0E00
0700
FF80
FF80
0800
0400
0C00
0400
0800
ENDCHAR
STARTCHAR uni0770.fina
ENCODING -1
SWIDTH 899 0
DWIDTH 13 0
BBX 13 13 0 -1
BITMAP
0040
0000
0000
0070
0040
0000
2108
4120
41F8
01F8
C100
7F00
3E00
ENDCHAR
STARTCHAR uni0770.init
ENCODING -1
SWIDTH 608 0
DWIDTH 9 0
BBX 10 11 -1 2
BITMAP
0200
0200
0000
0000
0380
0200
0000
1140
1140
FFC0
EEC0
ENDCHAR
STARTCHAR uni0770.medi
ENCODING -1
SWIDTH 608 0
DWIDTH 9 0
BBX 10 11 -1 2
BITMAP
0200
0200
0000
0000
0380
0200
0000
1140
1140
FFC0
EEC0
ENDCHAR
STARTCHAR uni0771.fina
ENCODING -1
SWIDTH 432 0
DWIDTH 6 0
BBX 7 14 0 -1
BITMAP
08
08
00
00
0E
18
04
04
04
00
00
04
9C
38
ENDCHAR
STARTCHAR uni0772.fina
ENCODING -1
SWIDTH 558 0
DWIDTH 8 0
BBX 8 16 0 -3
BITMAP
10
10
1C
3C
00
3F
7E
BC
64
47
03
80
40
60
7F
3C
ENDCHAR
STARTCHAR uni0772.init
ENCODING -1
SWIDTH 523 0
DWIDTH 8 0
BBX 9 9 -1 2
BITMAP
0A00
1E00
0000
0000
3C00
0E00
0700
FF80
FF80
ENDCHAR
STARTCHAR uni0772.medi
ENCODING -1
SWIDTH 523 0
DWIDTH 8 0
BBX 9 9 -1 2
BITMAP
0A00
1E00
0000
0000
3C00
0E00
0700
FF80
FF80
ENDCHAR
STARTCHAR uni0773.fina
ENCODING -1
SWIDTH 234 0
DWIDTH 4 0
BBX 5 9 -1 2
BITMAP
80
60
20
20
20
20
20
38
18
ENDCHAR
STARTCHAR uni0774.fina
ENCODING -1
SWIDTH 234 0
DWIDTH 4 0
BBX 5 10 -1 2
BITMAP
40
80
60
20
20
20
20
20
38
18
ENDCHAR
STARTCHAR uni0775.fina
ENCODING -1
SWIDTH 554 0
DWIDTH 8 0
BBX 8 10 0 -3
BITMAP
10
00
00
43
07
87
81
CE
FC
30
ENDCHAR
STARTCHAR uni0775.init
ENCODING -1
SWIDTH 271 0
DWIDTH 4 0
BBX 5 10 -1 -1
BITMAP
20
00
08
08
08
F8
F8
00
38
60
ENDCHAR
STARTCHAR uni0775.medi
ENCODING -1
SWIDTH 271 0
DWIDTH 4 0
BBX 5 10 -1 -1
BITMAP
20
00
08
08
08
F8
F8
00
38
60
ENDCHAR
STARTCHAR uni0776.fina
ENCODING -1
SWIDTH 554 0
DWIDTH 8 0
BBX 8 7 0 -3
BITMAP
43
07
87
81
CE
FC
30
ENDCHAR
STARTCHAR uni0776.init
ENCODING -1
SWIDTH 271 0
DWIDTH 4 0
BBX 5 10 -1 -1
BITMAP
30
00
08
08
08
F8
F8
00
38
60
ENDCHAR
STARTCHAR uni0776.medi
ENCODING -1
SWIDTH 271 0
DWIDTH 4 0
BBX 5 10 -1 -1
BITMAP
30
00
08
08
08
F8
F8
00
38
60
ENDCHAR
STARTCHAR uni0777.fina
ENCODING -1
SWIDTH 554 0
DWIDTH 8 0
BBX 8 7 0 -3
BITMAP
43
07
87
81
CE
FC
32
ENDCHAR
STARTCHAR uni0777.init
ENCODING -1
SWIDTH 271 0
DWIDTH 4 0
BBX 5 8 -1 -1
BITMAP
08
08
08
F8
F8
00
20
10
ENDCHAR
STARTCHAR uni0777.medi
ENCODING -1
SWIDTH 271 0
DWIDTH 4 0
BBX 5 8 -1 -1
BITMAP
08
08
08
F8
F8
00
20
10
ENDCHAR
STARTCHAR uni0778.fina
ENCODING -1
SWIDTH 451 0
DWIDTH 7 0
BBX 7 9 0 -1
BITMAP
20
0C
0E
0A
0E
0E
06
DC
38
ENDCHAR
STARTCHAR uni0779.fina
ENCODING -1
SWIDTH 451 0
DWIDTH 7 0
BBX 7 9 0 -1
BITMAP
30
0C
0E
0A
0E
0E
06
DC
38
ENDCHAR
STARTCHAR uni077A.fina
ENCODING -1
SWIDTH 812 0
DWIDTH 12 0
BBX 11 7 1 -3
BITMAP
07E0
3FE0
7000
C000
8000
FFE0
FFC0
ENDCHAR
STARTCHAR uni077B.fina
ENCODING -1
SWIDTH 812 0
DWIDTH 12 0
BBX 11 10 1 -3
BITMAP
0080
0000
0000
07E0
3FE0
7000
C000
8000
FFE0
FFC0
ENDCHAR
STARTCHAR uni077C.fina
ENCODING -1
SWIDTH 558 0
DWIDTH 8 0
BBX 8 11 0 -3
BITMAP
3F
7E
BC
64
47
13
90
40
60
7F
3C
ENDCHAR
STARTCHAR uni077C.init
ENCODING -1
SWIDTH 523 0
DWIDTH 8 0
BBX 9 8 -1 -1
BITMAP
3C00
0E00
0700
FF80
FF80
0000
0800
0800
ENDCHAR
STARTCHAR uni077C.medi
ENCODING -1
SWIDTH 523 0
DWIDTH 8 0
BBX 9 8 -1 -1
BITMAP
3C00
0E00
0700
FF80
FF80
0000
0800
0800
ENDCHAR
STARTCHAR uni077D.fina
ENCODING -1
SWIDTH 899 0
DWIDTH 13 0
BBX 13 10 0 -1
BITMAP
0020
0000
0000
2108
4120
41F8
01F8
C100
7F00
3E00
ENDCHAR
STARTCHAR uni077D.init
ENCODING -1
SWIDTH 608 0
DWIDTH 9 0
BBX 10 4 -1 2
BITMAP
1140
1140
FFC0
EEC0
ENDCHAR
STARTCHAR uni077D.medi
ENCODING -1
SWIDTH 608 0
DWIDTH 9 0
BBX 10 4 -1 2
BITMAP
1140
1140
FFC0
EEC0
ENDCHAR
STARTCHAR uni077E.fina
ENCODING -1
SWIDTH 899 0
DWIDTH 13 0
BBX 13 10 0 -1
BITMAP
0060
0000
0000
2108
4120
41F8
01F8
C100
7F00
3E00
ENDCHAR
STARTCHAR uni077E.init
ENCODING -1
SWIDTH 608 0
DWIDTH 9 0
BBX 10 7 -1 2
BITMAP
0300
0000
0000
1140
1140
FFC0
EEC0
ENDCHAR
STARTCHAR uni077E.medi
ENCODING -1
SWIDTH 608 0
DWIDTH 9 0
BBX 10 7 -1 2
BITMAP
0300
0000
0000
1140
1140
FFC0
EEC0
ENDCHAR
STARTCHAR uni077F.fina
ENCODING -1
SWIDTH 541 0
DWIDTH 8 0
BBX 8 11 0 2
BITMAP
1C
34
03
0B
02
0D
49
81
C1
FF
7F
ENDCHAR
STARTCHAR uni077F.init
ENCODING -1
SWIDTH 360 0
DWIDTH 5 0
BBX 6 11 -1 2
BITMAP
28
28
04
1C
38
30
38
0C
04
FC
FC
ENDCHAR
STARTCHAR uni077F.medi
ENCODING -1
SWIDTH 360 0
DWIDTH 5 0
BBX 6 11 -1 2
BITMAP
28
28
04
1C
38
30
38
0C
04
FC
FC
ENDCHAR
STARTCHAR uniFEDF_uni0773.fina.rlig
ENCODING -1
SWIDTH 537 0
DWIDTH 8 0
BBX 7 10 1 1
BITMAP
04
C6
E6
E4
14
08
08
14
3C
38
ENDCHAR
STARTCHAR uniFEE0_uni0773.fina.rlig
ENCODING -1
SWIDTH 580 0
DWIDTH 9 0
BBX 8 10 1 1
BITMAP
04
C4
E4
76
0E
0E
06
1B
79
C0
ENDCHAR
STARTCHAR uniFEDF_uni0774.fina.rlig
ENCODING -1
SWIDTH 530 0
DWIDTH 8 0
BBX 7 9 1 1
BITMAP
86
C6
E4
14
18
08
14
3C
38
ENDCHAR
STARTCHAR uniFEE0_uni0774.fina.rlig
ENCODING -1
SWIDTH 579 0
DWIDTH 9 0
BBX 9 11 0 1
BITMAP
8000
0200
6200
7200
3A00
0700
0700
0300
0D80
3C80
6000
ENDCHAR
STARTCHAR glyph3871
ENCODING -1
SWIDTH 892 0
DWIDTH 13 0
BBX 13 10 0 1
BITMAP
0240
0E58
3CF8
3900
5A10
C608
5C00
3610
3FE0
1FF0
ENDCHAR
STARTCHAR uni0620.fina
ENCODING -1
SWIDTH 554 0
DWIDTH 8 0
BBX 8 9 0 -5
BITMAP
43
87
8F
81
87
FE
78
28
38
ENDCHAR
STARTCHAR uni0620.init
ENCODING -1
SWIDTH 271 0
DWIDTH 4 0
BBX 5 8 -1 -1
BITMAP
08
08
08
F8
F8
00
00
30
ENDCHAR
STARTCHAR uni0620.medi
ENCODING -1
SWIDTH 271 0
DWIDTH 4 0
BBX 5 8 -1 -1
BITMAP
08
08
08
F8
F8
00
00
30
ENDCHAR
STARTCHAR uni063B.fina
ENCODING -1
SWIDTH 878 0
DWIDTH 13 0
BBX 13 11 0 2
BITMAP
00C0
0380
0020
01E0
0380
0300
4380
80C0
C0E0
FFB8
7F18
ENDCHAR
STARTCHAR uni063B.init
ENCODING -1
SWIDTH 360 0
DWIDTH 5 0
BBX 6 11 -1 2
BITMAP
28
28
04
1C
38
30
38
0C
04
FC
FC
ENDCHAR
STARTCHAR uni063B.medi
ENCODING -1
SWIDTH 541 0
DWIDTH 8 0
BBX 9 11 -1 2
BITMAP
2800
2800
0200
1E00
3800
3000
3800
0C00
0E00
FB80
F180
ENDCHAR
STARTCHAR uni063C.fina
ENCODING -1
SWIDTH 878 0
DWIDTH 13 0
BBX 13 14 0 -3
BITMAP
0020
01E0
0380
0300
4380
80C0
C0E0
FFB8
7F18
0000
0380
0600
0180
0100
ENDCHAR
STARTCHAR uni063C.init
ENCODING -1
SWIDTH 360 0
DWIDTH 5 0
BBX 6 14 -1 -3
BITMAP
04
1C
38
30
38
0C
04
FC
FC
00
14
10
0C
04
ENDCHAR
STARTCHAR uni063C.medi
ENCODING -1
SWIDTH 541 0
DWIDTH 8 0
BBX 9 14 -1 -3
BITMAP
0200
1E00
3800
3000
3800
0C00
0E00
FB80
F180
0800
1C00
3000
0800
0800
ENDCHAR
STARTCHAR uni063D.fina
ENCODING -1
SWIDTH 554 0
DWIDTH 8 0
BBX 8 10 0 -3
BITMAP
08
18
00
43
07
87
81
CE
FC
30
ENDCHAR
STARTCHAR uni063D.init
ENCODING -1
SWIDTH 271 0
DWIDTH 4 0
BBX 5 11 -1 -1
BITMAP
10
18
00
08
08
08
F8
F8
00
38
60
ENDCHAR
STARTCHAR uni063D.medi
ENCODING -1
SWIDTH 271 0
DWIDTH 4 0
BBX 5 11 -1 -1
BITMAP
10
18
00
08
08
08
F8
F8
00
38
60
ENDCHAR
STARTCHAR uni063E.fina
ENCODING -1
SWIDTH 554 0
DWIDTH 8 0
BBX 8 10 0 -3
BITMAP
14
14
00
43
07
87
81
CE
FC
30
ENDCHAR
STARTCHAR uni063E.init
ENCODING -1
SWIDTH 271 0
DWIDTH 4 0
BBX 5 11 -1 -1
BITMAP
38
60
00
08
08
08
F8
F8
00
38
60
ENDCHAR
STARTCHAR uni063E.medi
ENCODING -1
SWIDTH 271 0
DWIDTH 4 0
BBX 5 11 -1 -1
BITMAP
38
60
00
08
08
08
F8
F8
00
38
60
ENDCHAR
STARTCHAR uni063F.fina
ENCODING -1
SWIDTH 554 0
DWIDTH 8 0
BBX 8 12 0 -3
BITMAP
10
18
04
1C
10
43
07
87
81
CE
FC
30
ENDCHAR
STARTCHAR uni063F.init
ENCODING -1
SWIDTH 271 0
DWIDTH 4 0
BBX 5 13 -1 -1
BITMAP
20
60
18
70
20
08
08
08
F8
F8
00
38
60
ENDCHAR
STARTCHAR uni063F.medi
ENCODING -1
SWIDTH 271 0
DWIDTH 4 0
BBX 5 13 -1 -1
BITMAP
20
60
18
70
20
08
08
08
F8
F8
00
38
60
ENDCHAR
STARTCHAR glyph3951
ENCODING -1
SWIDTH 277 0
DWIDTH 4 0
BBX 2 11 1 -3
BITMAP
C0
C0
C0
C0
C0
C0
C0
C0
80
80
C0
ENDCHAR
STARTCHAR glyph3952
ENCODING -1
SWIDTH 946 0
DWIDTH 14 0
BBX 12 16 2 -1
BITMAP
0430
0450
00F0
1580
1700
0840
04E0
24E0
26E0
7260
5260
FFE0
EDC0
0000
2000
C000
ENDCHAR
STARTCHAR glyph3953
ENCODING -1
SWIDTH 1404 0
DWIDTH 21 0
BBX 22 16 -1 -1
BITMAP
00000C
000314
101C3C
606000
80B520
00F738
60083C
21802C
13C124
38E194
283194
FFF8F4
DFF8F8
000180
002300
001E00
ENDCHAR
STARTCHAR glyph3954
ENCODING -1
SWIDTH 1102 0
DWIDTH 17 0
BBX 19 18 -1 -3
BITMAP
001800
002800
067800
384000
008000
2AD000
2ED800
109B00
048B00
064880
0648C0
03C8C0
03F040
062040
8C30C0
783FC0
001F20
0000C0
ENDCHAR
STARTCHAR glyph3955
ENCODING -1
SWIDTH 1409 0
DWIDTH 21 0
BBX 23 9 1 -1
BITMAP
000060
0404F0
0E0638
0A021C
1FFFFE
17FFFE
600000
C83C20
303CC0
ENDCHAR
STARTCHAR glyph3956
ENCODING -1
SWIDTH 1922 0
DWIDTH 29 0
BBX 28 7 1 -2
BITMAP
00000650
00000E50
000013F0
000011F0
00001800
FFFFFC00
7FFFFC00
ENDCHAR
STARTCHAR uni08A0.fina
ENCODING -1
SWIDTH 649 0
DWIDTH 10 0
BBX 10 8 0 -1
BITMAP
4000
00C0
C040
7FC0
7FC0
0000
0800
0400
ENDCHAR
STARTCHAR uni08A0.init
ENCODING -1
SWIDTH 271 0
DWIDTH 4 0
BBX 5 7 -1 0
BITMAP
08
08
08
F8
F8
00
30
ENDCHAR
STARTCHAR uni08A0.medi
ENCODING -1
SWIDTH 271 0
DWIDTH 4 0
BBX 5 7 -1 0
BITMAP
08
08
08
F8
F8
00
30
ENDCHAR
STARTCHAR uni08A2.fina
ENCODING -1
SWIDTH 558 0
DWIDTH 8 0
BBX 8 14 0 -3
BITMAP
14
14
00
3F
7E
BC
64
47
13
98
40
60
7F
3C
ENDCHAR
STARTCHAR uni08A2.init
ENCODING -1
SWIDTH 523 0
DWIDTH 8 0
BBX 9 12 -1 -1
BITMAP
0C00
3C00
1000
0000
3C00
0E00
0700
FF80
FF80
0000
0C00
0C00
ENDCHAR
STARTCHAR uni08A2.medi
ENCODING -1
SWIDTH 523 0
DWIDTH 8 0
BBX 9 12 -1 -1
BITMAP
0C00
3C00
1000
0000
3C00
0E00
0700
FF80
FF80
0000
0C00
0C00
ENDCHAR
STARTCHAR uni08A3.fina
ENCODING -1
SWIDTH 523 0
DWIDTH 8 0
BBX 9 9 -1 2
BITMAP
3980
1700
1000
1000
1780
1D80
3080
FF80
FF80
ENDCHAR
STARTCHAR uni08A3.init
ENCODING -1
SWIDTH 523 0
DWIDTH 8 0
BBX 9 9 -1 2
BITMAP
3980
1700
1000
1000
1780
1D80
3080
FF80
FF80
ENDCHAR
STARTCHAR uni08A3.medi
ENCODING -1
SWIDTH 523 0
DWIDTH 8 0
BBX 9 9 -1 2
BITMAP
3980
1700
1000
1000
1780
1D80
3080
FF80
FF80
ENDCHAR
STARTCHAR uni08A4.fina
ENCODING -1
SWIDTH 757 0
DWIDTH 11 0
BBX 11 14 0 -1
BITMAP
0080
0080
0060
0180
0000
0060
00E0
00A0
C0E0
FFE0
7FE0
0000
00E0
0040
ENDCHAR
STARTCHAR uni08A4.init
ENCODING -1
SWIDTH 304 0
DWIDTH 5 0
BBX 6 13 -1 -1
BITMAP
30
60
10
38
28
38
34
04
FC
FC
00
30
10
ENDCHAR
STARTCHAR uni08A4.medi
ENCODING -1
SWIDTH 324 0
DWIDTH 5 0
BBX 6 14 -1 -1
BITMAP
20
20
38
60
18
18
3C
34
1C
FC
FC
00
30
10
ENDCHAR
STARTCHAR uni08A5.fina
ENCODING -1
SWIDTH 612 0
DWIDTH 9 0
BBX 9 15 0 -5
BITMAP
0100
0780
0200
0100
0380
0280
4380
0380
8000
C080
7F80
3E00
0800
0C00
0400
ENDCHAR
STARTCHAR uni08A5.init
ENCODING -1
SWIDTH 304 0
DWIDTH 5 0
BBX 6 14 -1 -1
BITMAP
10
38
60
10
38
28
38
34
04
FC
FC
00
30
10
ENDCHAR
STARTCHAR uni08A5.medi
ENCODING -1
SWIDTH 324 0
DWIDTH 5 0
BBX 6 13 -1 -1
BITMAP
10
38
60
18
18
3C
34
1C
FC
FC
00
30
10
ENDCHAR
STARTCHAR uni08A6.fina
ENCODING -1
SWIDTH 451 0
DWIDTH 7 0
BBX 7 12 0 -1
BITMAP
04
06
04
0E
0E
42
42
82
82
CE
7C
30
ENDCHAR
STARTCHAR uni08A6.init
ENCODING -1
SWIDTH 234 0
DWIDTH 4 0
BBX 5 10 -1 2
BITMAP
20
38
18
10
78
10
78
08
F8
F8
ENDCHAR
STARTCHAR uni08A6.medi
ENCODING -1
SWIDTH 234 0
DWIDTH 4 0
BBX 5 10 -1 2
BITMAP
20
38
18
10
78
10
78
08
F8
F8
ENDCHAR
STARTCHAR uni08A7.fina
ENCODING -1
SWIDTH 360 0
DWIDTH 5 0
BBX 5 14 0 -3
BITMAP
60
40
70
50
00
30
58
78
78
80
80
40
40
40
ENDCHAR
STARTCHAR uni08A7.init
ENCODING -1
SWIDTH 415 0
DWIDTH 6 0
BBX 7 10 -1 2
BITMAP
08
18
06
1C
00
04
0E
1A
FE
E6
ENDCHAR
STARTCHAR uni08A7.medi
ENCODING -1
SWIDTH 415 0
DWIDTH 6 0
BBX 7 10 -1 2
BITMAP
08
18
06
1C
00
04
0E
1A
FE
E6
ENDCHAR
STARTCHAR uni08A8.fina
ENCODING -1
SWIDTH 577 0
DWIDTH 9 0
BBX 9 9 0 -3
BITMAP
0400
2000
4380
0780
8700
C300
7E00
0000
1800
ENDCHAR
STARTCHAR uni08A8.init
ENCODING -1
SWIDTH 271 0
DWIDTH 4 0
BBX 5 11 -1 -1
BITMAP
20
20
00
08
08
08
F8
F8
00
38
60
ENDCHAR
STARTCHAR uni08A8.medi
ENCODING -1
SWIDTH 271 0
DWIDTH 4 0
BBX 5 11 -1 -1
BITMAP
20
20
00
08
08
08
F8
F8
00
38
60
ENDCHAR
STARTCHAR uni08A9.fina
ENCODING -1
SWIDTH 577 0
DWIDTH 9 0
BBX 9 10 0 -3
BITMAP
0600
0600
2000
4380
0780
8700
C300
7E00
0000
1800
ENDCHAR
STARTCHAR uni08A9.init
ENCODING -1
SWIDTH 271 0
DWIDTH 4 0
BBX 5 12 -1 -1
BITMAP
10
18
00
00
08
08
08
F8
F8
00
38
60
ENDCHAR
STARTCHAR uni08A9.medi
ENCODING -1
SWIDTH 271 0
DWIDTH 4 0
BBX 5 12 -1 -1
BITMAP
10
18
00
00
08
08
08
F8
F8
00
38
60
ENDCHAR
STARTCHAR uni08AA.fina
ENCODING -1
SWIDTH 402 0
DWIDTH 6 0
BBX 6 7 0 -1
BITMAP
04
04
04
04
9C
98
78
ENDCHAR
STARTCHAR uni08AB.fina
ENCODING -1
SWIDTH 451 0
DWIDTH 7 0
BBX 7 8 0 -1
BITMAP
0C
0E
0A
0E
6E
06
DC
38
ENDCHAR
STARTCHAR uni08AC.fina
ENCODING -1
SWIDTH 427 0
DWIDTH 6 0
BBX 6 8 0 0
BITMAP
1C
34
34
18
7C
E4
00
5C
ENDCHAR
STARTCHAR uni08A6.init_uniFE8E.rlig
ENCODING -1
SWIDTH 486 0
DWIDTH 7 0
BBX 6 11 1 1
BITMAP
10
9C
8C
C8
5C
28
1C
10
38
38
30
ENDCHAR
STARTCHAR uni08A6.medi_uniFE8E.rlig
ENCODING -1
SWIDTH 541 0
DWIDTH 8 0
BBX 8 12 0 1
BITMAP
02
82
E2
FF
52
0F
0A
02
06
0D
19
F0
ENDCHAR
STARTCHAR uni05D2_uni05BF.ccmp
ENCODING -1
SWIDTH 456 0
DWIDTH 7 0
BBX 6 9 0 0
BITMAP
38
70
78
1C
0C
0C
3C
6C
CC
ENDCHAR
STARTCHAR uni05D3_uni05BF.ccmp
ENCODING -1
SWIDTH 549 0
DWIDTH 8 0
BBX 8 9 0 0
BITMAP
1C
FF
FF
06
06
06
06
06
06
ENDCHAR
STARTCHAR uni05D4_uni05BF.ccmp
ENCODING -1
SWIDTH 614 0
DWIDTH 9 0
BBX 7 9 1 0
BITMAP
38
F8
FE
06
06
C6
C6
C6
C6
ENDCHAR
STARTCHAR uni05EA_uni05BF.ccmp
ENCODING -1
SWIDTH 673 0
DWIDTH 10 0
BBX 9 9 0 0
BITMAP
1C00
FE00
7F80
3180
3180
3180
3180
3180
F180
ENDCHAR
STARTCHAR uni0307.ccmp
ENCODING -1
SWIDTH 0 0
DWIDTH 0 0
BBX 1 1 0 8
BITMAP
00
ENDCHAR
STARTCHAR uni0307_uni0307.ccmp
ENCODING -1
SWIDTH 0 0
DWIDTH 0 0
BBX 1 1 1 8
BITMAP
00
ENDCHAR
STARTCHAR uni060C.locl
ENCODING -1
SWIDTH 318 0
DWIDTH 5 0
BBX 2 5 1 2
BITMAP
C0
C0
80
80
40
ENDCHAR
STARTCHAR uni061B.locl
ENCODING -1
SWIDTH 318 0
DWIDTH 5 0
BBX 2 8 1 2
BITMAP
C0
C0
00
C0
C0
80
80
40
ENDCHAR
STARTCHAR uni0645.locl
ENCODING -1
SWIDTH 559 0
DWIDTH 8 0
BBX 7 7 1 0
BITMAP
04
06
0A
0E
1E
30
E0
ENDCHAR
STARTCHAR uniFEE2.locl
ENCODING -1
SWIDTH 559 0
DWIDTH 8 0
BBX 7 7 1 0
BITMAP
04
06
0A
0E
1E
30
E0
ENDCHAR
STARTCHAR uni0765.ss01
ENCODING -1
SWIDTH 559 0
DWIDTH 8 0
BBX 8 10 0 0
BITMAP
06
06
00
03
07
05
07
0B
30
E0
ENDCHAR
STARTCHAR glyph4089
ENCODING -1
SWIDTH 559 0
DWIDTH 8 0
BBX 8 10 0 0
BITMAP
06
06
00
03
07
05
07
0B
30
E0
ENDCHAR
STARTCHAR uni0766.ss01
ENCODING -1
SWIDTH 559 0
DWIDTH 8 0
BBX 8 8 0 -1
BITMAP
03
07
05
07
0B
30
E7
02
ENDCHAR
STARTCHAR glyph4091
ENCODING -1
SWIDTH 559 0
DWIDTH 8 0
BBX 8 8 0 -1
BITMAP
03
07
05
07
0B
30
E7
02
ENDCHAR
STARTCHAR uni06FE.locl
ENCODING -1
SWIDTH 559 0
DWIDTH 8 0
BBX 7 9 1 -2
BITMAP
04
06
0A
0E
1E
30
EA
0A
0A
ENDCHAR
STARTCHAR uni08A7.ss01
ENCODING -1
SWIDTH 559 0
DWIDTH 8 0
BBX 8 12 0 0
BITMAP
04
04
03
0E
00
03
07
05
07
0B
30
E0
ENDCHAR
STARTCHAR uni08A7.fina.ss01
ENCODING -1
SWIDTH 559 0
DWIDTH 8 0
BBX 8 12 0 0
BITMAP
04
04
03
0E
00
03
07
05
07
0B
30
E0
ENDCHAR
STARTCHAR uni066F.fina
ENCODING -1
SWIDTH 612 0
DWIDTH 9 0
BBX 9 9 0 -2
BITMAP
0300
0780
4580
8780
8780
8080
C180
FF80
7E00
ENDCHAR
STARTCHAR uni060D.locl
ENCODING -1
SWIDTH 394 0
DWIDTH 6 0
BBX 6 9 0 2
BITMAP
04
08
10
30
20
60
40
C0
80
ENDCHAR
STARTCHAR uni066B.locl
ENCODING -1
SWIDTH 273 0
DWIDTH 4 0
BBX 4 7 0 1
BITMAP
10
20
20
60
40
40
80
ENDCHAR
STARTCHAR uni066C.locl
ENCODING -1
SWIDTH 184 0
DWIDTH 3 0
BBX 2 4 1 8
BITMAP
C0
C0
40
80
ENDCHAR
STARTCHAR uni0627_uni0627_uniFEDF_uniFEE0_uniFBAB.liga
ENCODING -1
SWIDTH 851 0
DWIDTH 13 0
BBX 12 9 0 1
BITMAP
0010
0090
0290
1290
3250
7150
7FD0
EFD0
0400
ENDCHAR
STARTCHAR glyph4199
ENCODING -1
SWIDTH 0 0
DWIDTH 0 0
BBX 9 1 -1 11
BITMAP
FF80
ENDCHAR
STARTCHAR uni08A1.fina
ENCODING -1
SWIDTH 649 0
DWIDTH 10 0
BBX 10 10 0 -1
BITMAP
0400
0400
4000
00C0
C040
7FC0
7FC0
0000
0600
0400
ENDCHAR
STARTCHAR uni08A1.init
ENCODING -1
SWIDTH 271 0
DWIDTH 4 0
BBX 5 11 -1 -1
BITMAP
18
18
00
08
08
08
F8
F8
00
30
30
ENDCHAR
STARTCHAR uni08A1.medi
ENCODING -1
SWIDTH 271 0
DWIDTH 4 0
BBX 5 11 -1 -1
BITMAP
18
18
00
08
08
08
F8
F8
00
30
30
ENDCHAR
STARTCHAR uni08AE.fina
ENCODING -1
SWIDTH 342 0
DWIDTH 5 0
BBX 4 12 1 -3
BITMAP
20
30
30
10
10
F0
F0
00
70
D0
30
20
ENDCHAR
STARTCHAR uni08AF.fina
ENCODING -1
SWIDTH 1062 0
DWIDTH 16 0
BBX 16 11 0 -3
BITMAP
0002
000F
211B
4161
41FF
01FF
C100
7F1C
3E30
000C
0008
ENDCHAR
STARTCHAR uni08AF.init
ENCODING -1
SWIDTH 771 0
DWIDTH 12 0
BBX 13 11 -1 -3
BITMAP
0020
0070
11D8
1318
FFF8
EFF8
0000
01C0
0100
00C0
0040
ENDCHAR
STARTCHAR uni08AF.medi
ENCODING -1
SWIDTH 771 0
DWIDTH 12 0
BBX 13 11 -1 -3
BITMAP
0020
0070
11D8
1318
FFF8
EFF8
0000
01C0
0100
00C0
0040
ENDCHAR
STARTCHAR uni08B0.fina
ENCODING -1
SWIDTH 878 0
DWIDTH 13 0
BBX 13 9 0 2
BITMAP
0020
01E0
0380
0320
43C0
80C0
80E0
FFB8
7F18
ENDCHAR
STARTCHAR uni08B0.init
ENCODING -1
SWIDTH 360 0
DWIDTH 5 0
BBX 6 9 -1 2
BITMAP
04
1C
38
34
38
0C
04
FC
FC
ENDCHAR
STARTCHAR uni08B0.medi
ENCODING -1
SWIDTH 541 0
DWIDTH 8 0
BBX 9 9 -1 2
BITMAP
0200
1E00
3800
3600
3800
0C00
0E00
FB80
F180
ENDCHAR
STARTCHAR uni08B1.fina
ENCODING -1
SWIDTH 238 0
DWIDTH 4 0
BBX 4 8 0 -1
BITMAP
60
60
90
F0
70
10
20
20
ENDCHAR
STARTCHAR uni08B2.fina
ENCODING -1
SWIDTH 432 0
DWIDTH 6 0
BBX 6 13 0 -1
BITMAP
08
0C
0C
0C
04
04
04
04
00
00
04
9C
38
ENDCHAR
STARTCHAR uni08B3.fina
ENCODING -1
SWIDTH 468 0
DWIDTH 7 0
BBX 6 11 1 -3
BITMAP
70
70
30
70
BC
9C
00
90
C0
FC
78
ENDCHAR
STARTCHAR uni08B3.init
ENCODING -1
SWIDTH 541 0
DWIDTH 8 0
BBX 8 12 -1 -3
BITMAP
08
3E
60
60
3F
FE
F0
04
1C
10
04
04
ENDCHAR
STARTCHAR uni08B3.medi
ENCODING -1
SWIDTH 360 0
DWIDTH 5 0
BBX 6 11 -1 -3
BITMAP
10
38
78
18
FC
EC
00
28
28
18
18
ENDCHAR
STARTCHAR uni08B4.fina
ENCODING -1
SWIDTH 541 0
DWIDTH 8 0
BBX 8 12 0 -1
BITMAP
03
0B
02
0D
49
81
C1
FF
7F
00
0C
0C
ENDCHAR
STARTCHAR uni08B4.init
ENCODING -1
SWIDTH 360 0
DWIDTH 5 0
BBX 6 12 -1 -1
BITMAP
04
1C
38
30
38
0C
04
FC
FC
00
18
18
ENDCHAR
STARTCHAR uni08B4.medi
ENCODING -1
SWIDTH 360 0
DWIDTH 5 0
BBX 6 12 -1 -1
BITMAP
04
1C
38
30
38
0C
04
FC
FC
00
18
18
ENDCHAR
STARTCHAR uni08B6.fina
ENCODING -1
SWIDTH 649 0
DWIDTH 10 0
BBX 10 11 0 -1
BITMAP
0200
0E00
0800
4000
00C0
C040
7FC0
7FC0
0000
0600
0400
ENDCHAR
STARTCHAR uni08B6.init
ENCODING -1
SWIDTH 271 0
DWIDTH 4 0
BBX 5 11 -1 -1
BITMAP
10
30
00
08
08
08
F8
F8
00
30
10
ENDCHAR
STARTCHAR uni08B6.medi
ENCODING -1
SWIDTH 271 0
DWIDTH 4 0
BBX 5 11 -1 -1
BITMAP
10
30
00
08
08
08
F8
F8
00
30
10
ENDCHAR
STARTCHAR uni08B7.fina
ENCODING -1
SWIDTH 649 0
DWIDTH 10 0
BBX 10 13 0 -3
BITMAP
0200
0E00
0800
4000
00C0
C040
7FC0
7FC0
0000
0E00
1800
0600
0400
ENDCHAR
STARTCHAR uni08B7.init
ENCODING -1
SWIDTH 271 0
DWIDTH 4 0
BBX 5 13 -1 -3
BITMAP
10
30
00
08
08
08
F8
F8
00
38
60
18
10
ENDCHAR
STARTCHAR uni08B7.medi
ENCODING -1
SWIDTH 271 0
DWIDTH 4 0
BBX 5 13 -1 -3
BITMAP
10
30
00
08
08
08
F8
F8
00
38
60
18
10
ENDCHAR
STARTCHAR uni08B8.fina
ENCODING -1
SWIDTH 649 0
DWIDTH 10 0
BBX 10 7 0 2
BITMAP
0C00
0000
4000
0EC0
C040
7FC0
7FC0
ENDCHAR
STARTCHAR uni08B8.init
ENCODING -1
SWIDTH 387 0
DWIDTH 6 0
BBX 7 7 -1 2
BITMAP
30
48
7C
06
02
FE
FE
ENDCHAR
STARTCHAR uni08B8.medi
ENCODING -1
SWIDTH 387 0
DWIDTH 6 0
BBX 7 7 -1 2
BITMAP
30
48
7C
06
02
FE
FE
ENDCHAR
STARTCHAR uni08B9.fina
ENCODING -1
SWIDTH 432 0
DWIDTH 6 0
BBX 7 11 0 -1
BITMAP
02
04
00
04
04
04
00
00
04
9C
38
ENDCHAR
STARTCHAR uni08BA.fina
ENCODING -1
SWIDTH 577 0
DWIDTH 9 0
BBX 9 10 0 -3
BITMAP
1000
0000
2000
4380
0780
8700
C300
7E00
0000
1800
ENDCHAR
STARTCHAR uni08BA.init
ENCODING -1
SWIDTH 271 0
DWIDTH 4 0
BBX 5 12 -1 -1
BITMAP
20
00
40
30
08
08
08
F8
F8
10
38
20
ENDCHAR
STARTCHAR uni08BA.medi
ENCODING -1
SWIDTH 271 0
DWIDTH 4 0
BBX 5 12 -1 -1
BITMAP
20
00
40
30
08
08
08
F8
F8
10
38
20
ENDCHAR
STARTCHAR uni08BB.fina
ENCODING -1
SWIDTH 757 0
DWIDTH 11 0
BBX 11 6 0 2
BITMAP
0060
00E0
00A0
C0E0
FFE0
7FE0
ENDCHAR
STARTCHAR uni08BB.init
ENCODING -1
SWIDTH 304 0
DWIDTH 5 0
BBX 6 11 -1 -1
BITMAP
10
38
28
38
34
04
FC
FC
00
30
10
ENDCHAR
STARTCHAR uni08BB.medi
ENCODING -1
SWIDTH 324 0
DWIDTH 5 0
BBX 6 10 -1 -1
BITMAP
18
18
3C
34
1C
FC
FC
00
30
10
ENDCHAR
STARTCHAR uni08BC.fina
ENCODING -1
SWIDTH 612 0
DWIDTH 9 0
BBX 9 9 0 -2
BITMAP
0300
0780
4580
8780
8780
8080
C180
FF80
7E00
ENDCHAR
STARTCHAR uni08BC.init
ENCODING -1
SWIDTH 304 0
DWIDTH 5 0
BBX 6 10 -1 2
BITMAP
30
10
10
38
28
38
34
04
FC
FC
ENDCHAR
STARTCHAR uni08BC.medi
ENCODING -1
SWIDTH 324 0
DWIDTH 5 0
BBX 6 10 -1 2
BITMAP
10
18
00
18
18
3C
34
1C
FC
FC
ENDCHAR
STARTCHAR uni08BD.fina
ENCODING -1
SWIDTH 541 0
DWIDTH 8 0
BBX 8 7 0 -1
BITMAP
21
41
01
01
C1
7F
3E
ENDCHAR
STARTCHAR uni08BD.init
ENCODING -1
SWIDTH 271 0
DWIDTH 4 0
BBX 5 9 -1 2
BITMAP
10
18
00
00
08
08
08
F8
F8
ENDCHAR
STARTCHAR uni08BD.medi
ENCODING -1
SWIDTH 271 0
DWIDTH 4 0
BBX 5 9 -1 2
BITMAP
10
18
00
00
08
08
08
F8
F8
ENDCHAR
STARTCHAR glyph4483
ENCODING -1
SWIDTH 0 0
DWIDTH 0 0
BBX 4 3 -2 0
BITMAP
60
10
F0
ENDCHAR
STARTCHAR glyph4484
ENCODING -1
SWIDTH 0 0
DWIDTH 0 0
BBX 4 3 -2 0
BITMAP
60
10
F0
ENDCHAR
STARTCHAR glyph4485
ENCODING -1
SWIDTH 0 0
DWIDTH 0 0
BBX 3 4 -2 0
BITMAP
40
20
A0
60
ENDCHAR
STARTCHAR uniFED3_uniFEE0_uniFEE0_uniFBAB.liga
ENCODING -1
SWIDTH 1188 0
DWIDTH 18 0
BBX 16 13 1 1
BITMAP
0004
000C
0204
1400
0006
0087
2289
224F
6247
A361
F3FF
DFFF
0C00
ENDCHAR
STARTCHAR uniFED3_uniFEE0_uniFEE0_uniFBAB.liga
ENCODING -1
SWIDTH 1188 0
DWIDTH 18 0
BBX 16 13 1 1
BITMAP
0004
000C
0004
0000
0086
2287
2289
224F
6247
9361
F3FF
DFFF
0C00
ENDCHAR
STARTCHAR glyph4546
ENCODING -1
SWIDTH 0 0
DWIDTH 0 0
BBX 2 4 1 7
BITMAP
80
C0
C0
80
ENDCHAR
ENDFONT
